<mxfile host="65bd71144e">
    <diagram id="rKgtSKFleOxurY6utcXr" name="Page-1">
        <mxGraphModel dx="1480" dy="198" grid="1" gridSize="10" guides="1" tooltips="1" connect="1" arrows="1" fold="1" page="1" pageScale="1" pageWidth="1100" pageHeight="850" math="0" shadow="0">
            <root>
                <mxCell id="0"/>
                <mxCell id="1" parent="0"/>
                <mxCell id="4" value="&lt;pre style=&quot;box-sizing: border-box; line-height: 1.7em; padding: 10px; border: 1px solid var(--card-border); border-radius: 4px; word-spacing: 4px; color: rgb(165, 165, 165); font-style: normal; font-variant-ligatures: normal; font-variant-caps: normal; font-weight: 400; letter-spacing: normal; orphans: 2; text-align: start; text-indent: 0px; text-transform: none; widows: 2; -webkit-text-stroke-width: 0px; text-decoration-thickness: initial; text-decoration-style: initial; text-decoration-color: initial; font-family: urw-din !important; font-size: 17px !important; background: var(--card-background) !important;&quot;&gt;&lt;span style=&quot;box-sizing: border-box; line-height: 1.7em; font-family: urw-din !important; font-size: 18px;&quot;&gt;arr[ ] = {2, 7, 9, 5, 8, 7, 4} &#10;K = 6 &lt;/span&gt;&lt;/pre&gt;" style="text;whiteSpace=wrap;html=1;" vertex="1" parent="1">
                    <mxGeometry x="20" width="290" height="140" as="geometry"/>
                </mxCell>
                <mxCell id="5" value="gucha banana he of elements less than 6 ke&amp;nbsp;" style="text;html=1;align=center;verticalAlign=middle;resizable=0;points=[];autosize=1;strokeColor=none;fillColor=none;" vertex="1" parent="1">
                    <mxGeometry x="10" y="135" width="260" height="30" as="geometry"/>
                </mxCell>
                <mxCell id="6" value="&lt;pre style=&quot;border: 1px solid var(--card-border); font-style: normal; font-variant-ligatures: normal; font-variant-caps: normal; font-weight: 400; letter-spacing: normal; orphans: 2; text-indent: 0px; text-transform: none; widows: 2; -webkit-text-stroke-width: 0px; background: var(--card-background) !important; text-decoration-thickness: initial; text-decoration-style: initial; text-decoration-color: initial; box-sizing: border-box; line-height: 1.7em; padding: 10px; border-radius: 4px; word-spacing: 4px; color: rgb(165, 165, 165); text-align: start; font-family: urw-din !important; font-size: 17px !important;&quot;&gt;&lt;span style=&quot;border-color: rgb(0, 0, 0); box-sizing: border-box; line-height: 1.7em; font-size: 18px; font-family: urw-din !important;&quot;&gt;arr[ ] = {2, 7, 9, 5, 8, 7, 4} &lt;br style=&quot;border-color: rgb(0, 0, 0);&quot;&gt;&lt;/span&gt;&lt;/pre&gt;" style="text;whiteSpace=wrap;html=1;" vertex="1" parent="1">
                    <mxGeometry x="10" y="330" width="290" height="110" as="geometry"/>
                </mxCell>
                <mxCell id="7" value="array is given K is given so ek baar to sliding window soch lena" style="text;html=1;align=center;verticalAlign=middle;resizable=0;points=[];autosize=1;strokeColor=none;fillColor=none;" vertex="1" parent="1">
                    <mxGeometry x="10" y="165" width="360" height="30" as="geometry"/>
                </mxCell>
                <mxCell id="8" value="windows size= No of elements less than k=3" style="text;html=1;align=center;verticalAlign=middle;resizable=0;points=[];autosize=1;strokeColor=none;fillColor=none;" vertex="1" parent="1">
                    <mxGeometry x="-5" y="330" width="260" height="30" as="geometry"/>
                </mxCell>
                <mxCell id="9" value="" style="shape=stencil(lVfLctswDPwaXTEECb7OafofmYlTe+rGGcd9/X2hqpINyF43N1nGiuRisQCH9PC+fXrbDDG8n46Hr5ufu+fTdkifhhh3r9vNcXfSpyE9Dunh5XDcfDkevr8+T7/fnsbI8enb4cf4hV8TrlIMIyiG39MLyST575vPU/x+93oRz4FCNYBcKUQASFQsoHSKFQCqX6E2kn4bEJlKN4AWKTMAVGrJrtCpghVSIm4WUCgUANDvsQUwBEihLpYloQpYykIp+TxEcOjC/tDSqDQA0DRlA9BTNbkNGDmxLKVADWipsT90jFB8TVkqBsACtdSzlzfPL67HF6+9QBEIo6tWxcUH9P02/32OT0AWGt+y2/+/tF+P77PwF0apAVFofLfxQgWkeIy3pVbuxVfLZ6OM+Fxpju8kYLGGBcCUEaOVshUpR4oIoCdkD0jozNkbnm4JlXIXatUfuqCsae0Hx2pHJIlXXZ0r9WZ8tN5yLz45pyDG++le1QW0EGW0+qrMqAqKd98AW5RqwjWQQIwStoj4HN9xFSTLZ8Su1eeiPVclchUOwSc4U7+zgOtns7HeihebMK1rbFt1VQJQER8GqG/aFKjmBBy5ZU9RYmhdtXmr0/bXQXOqkdiNUkobkJ12+GabR+4wz9rhxbbw0uDcklUXbgzRRIPKkUjVbkl562BLSRumZanH2cKvA4IfErT6GORBte+K7ULu18sh+6amS1Q0oqqdOD/VvgtWKNS6pzUjlnyT0tQzMNRA4oQRYZ7VruyBs06bIM0ru1ClMkja6vtSoYEFr1O9VCB+gu8HkqChLpW7xEc4ykZvX8J43vf9TPDYtQyh/xmfictqP2jYp95W5wX5Kn4CGfkE/H/0Eng/Xh/ON86X3X4/XVgv//c3VH013W7T4x8=);lineShape=1;" vertex="1" parent="1">
                    <mxGeometry x="98.09988753231028" y="389.3761219774651" width="11.179700730306436" height="5.443595384011097" as="geometry"/>
                </mxCell>
                <mxCell id="10" value="" style="shape=stencil(lVfLbhsxDPyavRKSKFHSOU3/I0Cc2qgbB477+vtysdXWpL1TBPBhbXOWImf40MQP7/unt92UwvvlfPq6+3l4vuwn/jSldHjd786Hiz5N/Djxw8vpvPtyPn1/fV6+vz3NlvPTt9OP+Q2/Flyj1GZQCr+XH0qi+at+Pi/2x8PrlX0MxNEAREgYAJikGEDtVAMA9HGAAWiZYt8GJKFavQeu2wBOlK2HmikXAGgk1oM0YpClXCh0C4gU2zagRKrZ8sAwrUWJCwagPjvwIHlkfQDmqICHqkxbaWjeggBAoWiZVmYiYFppSjboFEai7wKaULdpVTn+fcVdQE9UbNCROiC6M1WrDD0QiKBryNnZB2QvVLqzT8i+Umd3flQKvVOw1ZmogYSqfbXvV+GCfMawxreWzsjwloNm7TtUqdpHsQHjftQbRZchHiLZoqBZiqOSGCHHrg4UkJHoeGhsBWTqiIVE0nwMFXnQbmFpjhHzHH2WOhVs73RUKSDa4mi4azcaXX8rYt8qqOCUJl83MKPZD52AOZbx91Udo/NX31cCVZSf5hlOuG8pPezymXDZdFs2AhvpbG+LQOsO27uJqYIruCx942XKyIMC4kcATQega3V1NOP7gOw1x6sKt8aT2yu4UkYTM/shnhnSJtquHc3qE4xYSUNma7+ucCYXIXbCKDBoPUBz6xrDETWH6NY1bQaABxZfC0plBsXJwROn5Y2kocUS3dDRdQ3MhNh8+V8NuvuI5Hv8PKpBQehyZqXRCtxE0s3WHOAcvMmRMh+AVm/meMnEIODgU6r3hAKEF0alrPbasQHJwW92KkS0kke/uGTtB+A8mk+r0lyx6Mbet9rLaLH3y+Dm/QLjLSTRnycBicpot1fxwmV8sHmVT7Q5Vmo2/wVvvh+9N/7fXh/+XVJfDsfjcse9/t9favWn5ULMj38A);lineShape=1;" vertex="1" parent="1">
                    <mxGeometry x="165.00107137342934" y="388.9916521769969" width="9.71222363418826" height="5.651191779733054" as="geometry"/>
                </mxCell>
                <mxCell id="11" value="" style="shape=stencil(lVfZbttADPwavRJL7v2cpv8RIE5t1LUDx+nx96UqrGqy1hR5k2WOeCxnyJ3iw9v+6XU3SXi7Xs5fdz8Oz9f9FD9NIofTfnc5XPVpio9TfHg5X3ZfLuf30/Py+/Vptpyfvp2/z1/4ueAalTqDJPxaXtRINf9583mxPx5ON/YcKYkBNKEYtwHC1Jv10Km0bUBMlNgCAjEIKamHbAAlUhQA0ACSAeRMDeSQK7GtUmoUwjagJIoOEKimbYCmmCxAyxAYANaIB0AqVRBSiyTBALhQB0m3TtmeQyKp2/ZdM7QpCMygCyUbUKAM4unqXpw9OoNeKGRnn1D8a/3WAlHrwL5R764+jPLtVC0RCvw+hzW/AejUC3RQbIFYBve2Mig2Is5UANO0ROIAdejHfUCmbHuCGzXAg67q43LoFBCARxPfeBCUQ6Boj015kIEH5YHYPmI9aMS05uWFmRic9AxwmooddE/lTIwaQ1O29gIVWGvqtCVQB3qqh1Y8kwPuiuSZKYjJKr+u7aC+z31tlUu1DzFZla65esJ8u2d+g0qq9s3Go8SE0tW9dGnLNRzRBwFhTPm1RGE04f2e056wZ5wEjoNaiG1T68zMwENR+bJV1akcQVsXoWrLqm8SYLJ+L7hVRMsAGiOp3lkm1wYVNfbRmGtnFDiVI49jWjVeRnPdX6eST7rjua8K3ZwaBTw4y9jnVg9plOG+B68uLcE5FTw7dTVBG2QY4rbaMxzk/4xNXTgTODT9vs23VkrgCMIYF6t9Hvq3UR+n1rpid1BP1QbLgyqUQTxxbMerPVMB9dTdlL09A2JmvweqfQDxFL9VqD0asNq/xeebwAT/6JXl//b68Pd+9HI4Hpfr1e3//j6lr5a7WHz8DQ==);lineShape=1;" vertex="1" parent="1">
                    <mxGeometry x="231.2286270826594" y="387.8450231897367" width="7.896242274208931" height="4.73516331192275" as="geometry"/>
                </mxCell>
                <mxCell id="12" value="&lt;pre style=&quot;border: 1px solid var(--card-border); font-style: normal; font-variant-ligatures: normal; font-variant-caps: normal; font-weight: 400; letter-spacing: normal; orphans: 2; text-indent: 0px; text-transform: none; widows: 2; -webkit-text-stroke-width: 0px; background: var(--card-background) !important; text-decoration-thickness: initial; text-decoration-style: initial; text-decoration-color: initial; box-sizing: border-box; line-height: 1.7em; padding: 10px; border-radius: 4px; word-spacing: 4px; color: rgb(165, 165, 165); text-align: start; font-family: urw-din !important; font-size: 17px !important;&quot;&gt;&lt;span style=&quot;border-color: rgb(0, 0, 0); box-sizing: border-box; line-height: 1.7em; font-size: 18px; font-family: urw-din !important;&quot;&gt;arr[ ] = {2, 7, 9, 5, 8, 7, 4} &lt;br style=&quot;border-color: rgb(0, 0, 0);&quot;&gt;&lt;/span&gt;&lt;/pre&gt;" style="text;whiteSpace=wrap;html=1;" vertex="1" parent="1">
                    <mxGeometry x="280" y="336.82" width="290" height="110" as="geometry"/>
                </mxCell>
                <mxCell id="13" value="&lt;pre style=&quot;border: 1px solid var(--card-border); font-style: normal; font-variant-ligatures: normal; font-variant-caps: normal; font-weight: 400; letter-spacing: normal; orphans: 2; text-indent: 0px; text-transform: none; widows: 2; -webkit-text-stroke-width: 0px; background: var(--card-background) !important; text-decoration-thickness: initial; text-decoration-style: initial; text-decoration-color: initial; box-sizing: border-box; line-height: 1.7em; padding: 10px; border-radius: 4px; word-spacing: 4px; color: rgb(165, 165, 165); text-align: start; font-family: urw-din !important; font-size: 17px !important;&quot;&gt;&lt;span style=&quot;border-color: rgb(0, 0, 0); box-sizing: border-box; line-height: 1.7em; font-size: 18px; font-family: urw-din !important;&quot;&gt;arr[ ] = {2, 7, 9, 5, 8, 7, 4} &lt;br style=&quot;border-color: rgb(0, 0, 0);&quot;&gt;&lt;/span&gt;&lt;/pre&gt;" style="text;whiteSpace=wrap;html=1;" vertex="1" parent="1">
                    <mxGeometry x="530" y="337.1" width="290" height="110" as="geometry"/>
                </mxCell>
                <mxCell id="14" value="&lt;pre style=&quot;border: 1px solid var(--card-border); font-style: normal; font-variant-ligatures: normal; font-variant-caps: normal; font-weight: 400; letter-spacing: normal; orphans: 2; text-indent: 0px; text-transform: none; widows: 2; -webkit-text-stroke-width: 0px; background: var(--card-background) !important; text-decoration-thickness: initial; text-decoration-style: initial; text-decoration-color: initial; box-sizing: border-box; line-height: 1.7em; padding: 10px; border-radius: 4px; word-spacing: 4px; color: rgb(165, 165, 165); text-align: start; font-family: urw-din !important; font-size: 17px !important;&quot;&gt;&lt;span style=&quot;border-color: rgb(0, 0, 0); box-sizing: border-box; line-height: 1.7em; font-size: 18px; font-family: urw-din !important;&quot;&gt;arr[ ] = {2, 7, 9, 5, 8, 7, 4} &lt;br style=&quot;border-color: rgb(0, 0, 0);&quot;&gt;&lt;/span&gt;&lt;/pre&gt;" style="text;whiteSpace=wrap;html=1;" vertex="1" parent="1">
                    <mxGeometry x="800" y="337.1" width="290" height="110" as="geometry"/>
                </mxCell>
                <mxCell id="15" value="&lt;pre style=&quot;border: 1px solid var(--card-border); font-style: normal; font-variant-ligatures: normal; font-variant-caps: normal; font-weight: 400; letter-spacing: normal; orphans: 2; text-indent: 0px; text-transform: none; widows: 2; -webkit-text-stroke-width: 0px; background: var(--card-background) !important; text-decoration-thickness: initial; text-decoration-style: initial; text-decoration-color: initial; box-sizing: border-box; line-height: 1.7em; padding: 10px; border-radius: 4px; word-spacing: 4px; color: rgb(165, 165, 165); text-align: start; font-family: urw-din !important; font-size: 17px !important;&quot;&gt;&lt;span style=&quot;border-color: rgb(0, 0, 0); box-sizing: border-box; line-height: 1.7em; font-size: 18px; font-family: urw-din !important;&quot;&gt;arr[ ] = {2, 7, 9, 5, 8, 7, 4} &lt;br style=&quot;border-color: rgb(0, 0, 0);&quot;&gt;&lt;/span&gt;&lt;/pre&gt;" style="text;whiteSpace=wrap;html=1;" vertex="1" parent="1">
                    <mxGeometry x="1070" y="337.1" width="290" height="110" as="geometry"/>
                </mxCell>
                <mxCell id="16" value="&lt;pre style=&quot;border: 1px solid var(--card-border); font-style: normal; font-variant-ligatures: normal; font-variant-caps: normal; font-weight: 400; letter-spacing: normal; orphans: 2; text-indent: 0px; text-transform: none; widows: 2; -webkit-text-stroke-width: 0px; background: var(--card-background) !important; text-decoration-thickness: initial; text-decoration-style: initial; text-decoration-color: initial; box-sizing: border-box; line-height: 1.7em; padding: 10px; border-radius: 4px; word-spacing: 4px; color: rgb(165, 165, 165); text-align: start; font-family: urw-din !important; font-size: 17px !important;&quot;&gt;&lt;span style=&quot;border-color: rgb(0, 0, 0); box-sizing: border-box; line-height: 1.7em; font-size: 18px; font-family: urw-din !important;&quot;&gt;arr[ ] = {2, 7, 9, 5, 8, 7, 4} &lt;br style=&quot;border-color: rgb(0, 0, 0);&quot;&gt;&lt;/span&gt;&lt;/pre&gt;" style="text;whiteSpace=wrap;html=1;" vertex="1" parent="1">
                    <mxGeometry x="1330" y="337.1" width="290" height="110" as="geometry"/>
                </mxCell>
                <mxCell id="17" value="" style="shape=stencil(lVjbchoxDP0aXjW+W35O0//ITEjDNA0ZQm9/X20Zw1rePV7eYDliddeRdv7h8/XpY79z5vN8On7f/z48n193/svOucP76/50OMunnX/c+YeX42n/7XT8+f58+f7xNCGnTz+Ov6Z/+HORs8aQMZOYM38vjwy5+P/B14vA2+F9JlAKcW7wljzG5xbvKTLGt/qk+mANb2KDLxQcwCcqqdXf1SfLAoGcEshkLBAQh7QWTC7K6wLM5EIrEKkAGzhQ9K1PDaWyLpALldZJPlIENuRAobUhSFqANySm0NoQAjFwa3LaS6GQ8+sCMVIojUD00IbA5JVApoQELNk2VZOlCGzwnorK1UgeCLhMzrYCkr7A6FvmVIHsauwXBWzSXsqRGNSP9eRcK8C1wpcFbA1TFWBLCRUQ5VYjSV8PwsAUW5M51RaygjdtfUo9FWBxJm4ztRhiVAuUFV5CAKoz6wZWJE1QcdbSveIj7MCC5xafaqJvxOcRvvV/YZjUTFbZKxGH+nPReAYpLTWTNR7FV7zhOjzQP5L1HR74x1dtr/PgNkOXi5hi7F4ARqCl0CsU1vGmDtS5Q8H/i7Z9AID+gu8cmkEBGN2zBJ+A/tJ2rcYjiuDIdv5EPdHrWTbhgb2Bcq8PwEc9XAf6pJpeG+2VhtLlA/KnNMQuH1C8uNKZjfmQa/vbmG+payg4n+Od9RJ0gxgXZOkVAhVvKXcORR3F6A4x6FhGs4JBR+wo+6Dj3o/XDQhPgB6PJ0yPxxPMaG45mJCCVwmEJ7DRnGkw4aXhKjxmENdfZwyFYb55xbCEASFaSbH1jzAsRNa9bkATg4MFqfATRQT4ogtSOCjS3wayLYUTlhvQBOgyWvYP1CJuS+ScqYOQTdS+VWnaBe5aHmTbQMuDrCdqr5R9JgCeKwuQIrqyMVm0k9n683wnA3mdMlm1xJmq5PIkcJpb+uuWtiyQ9ao7ba6IXJq6Cc93Y9BLuQvcVE7oDakOr+v4SLBbcNHzb7ogoBOI1fVZKKADgtMEbXACcZqgDU4slopisPiEY/UGNzgRyf9bhUd5KvqrSjCVkq/h1Xw1lfEs473eKAWP2lfQ88bgg0/UBBPTj9u024jPNTwb9WG9oQ/sZc2HBv4s+vw0iFfRFYbz4e6b5AYB+XA7gb4c3t4uF9T57/pkKo8u51b/+A8=);lineShape=1;" vertex="1" parent="1">
                    <mxGeometry x="364.4840258910715" y="345.34366540954335" width="1.5678148866564614" height="25.211250871975246" as="geometry"/>
                </mxCell>
                <mxCell id="18" value="" style="shape=stencil(lVfRchshDPyae9UAEgKe0/Q/MhOn9tS1M47bJn9fuTfXHiK3bd7OmAW02pVg4ruX/cPzbkrh5Xo5f939PDxe9xN/mlI6nPa7y+FqXxPfT3z3dL7svlzO30+P8+/nh9vM29e384/bCq8zrlCQGyiFt3kgUtPfA5/n6cfDaTU9Rgqtny8UGwBUktoBUqVUtgF2Is0dQBI1AGCh238rQGaKaRtg66XQATRTAEHnQKUHFKXIANCo9CxVIQYsaVvWWwAtkIAdSiXuaW1KDFhqmVR7QCbOAKA+aAOkCACFSh52ADG0Sto8QAFLrZEkH3RCMTSqA0sNAGIIFFzUFhYQk21R3BZ/FL8FSL3jbCSiIGy9AaBArnZiUQ9AURsp0ge94mFLTV5+RjUCCOXgAVCvTDV7XgsKgocdKgWUOSZx8itLajaPNMgvI0fIkIi8CHKTVvYAQUfSxcNrkyLPmTbiAEB5qEvhWgEy9lyKnqWAYjAHqQcUQOv7JhXkCBOnC6LiVFulGdTXEMDE6TLXsDbK4pe1g5A2Pgoo1nKGuoF6uwo1p2+mBmLIQrUPuhZY8SX7Nmd9TICYeKhMWmCxtMuFc1C2PQFLdt/RniUxGtCFZrg9sMkRHEm8gWKGrT1Q7P3D0NGDFxIpyJmt7ko9NUBPGDoDvMcE7zMbAMUlUmY3HanBmPerR6Bn9mLDPY2XtP/f9EH7AQrTiqZfHRV29ZcEIxJZ11efuPTn90vDxy79/5xuH3/fF0+H43F+nqz/9+8RG5rfMnz/Cw==);lineShape=1;" vertex="1" parent="1">
                    <mxGeometry x="363.1738862712625" y="368.77614579728595" width="1.806922021644368" height="2.465673198651488" as="geometry"/>
                </mxCell>
                <mxCell id="19" value="" style="shape=stencil(rZbbbtswDIafxrcERUqidN1171Gg6RIsS4o03eHtJ8+wa9HwPwzYneN8lEnq52HQh7fj0+thEH67365fDz9Oz/fjoJ8GkdPleLid7u1p0MdBH16ut8OX2/X98jz9fn0ayfHp2/X7eMLPya5WUh6thH9Nb5Ri+PPi88SfT5cVXwrF2vFBKNi+gQkl6wzEKPO+QTKS3iAqcdw3iEYxdQZJSeu+gWbiPoaciHXfQIRq7AysEicQAwXt+JZmBkmKPkeNTyBkpSKeLxkEQDX3l8ZMDC5BZndXH6gg4ECSPW9ARjxLYMUr5IPzp5CBK16iW/GCz3cJbSIVxKcNzwXlJ/QSrZkyuLDgBdf4CO/LCyKTAv+Vct2cDyogUsyeN8C3eso+P6hLpDm6FW/A/8Zv9IDiTRt9Fqogn5GseH2i/Mf59tf6B/EqSfJ8BbyQbuqrAv2HjT5bg4D6L5t6jECfTFI2+QT6b/Uonkdjhuf2utID9t/nx+YM/xc+FD+UzGBH1zDX0zJjBGYoCll/BSmQopJpgzV0BpGpghrINktymcSJFLhU2phxXQg2xdq6RK8KJgMiqsmrgqEoGp/N8QGdn+c14INn5H/rUdHzoOhHTfp4A+ILpex41LRaDW78yWArGJcGt5vBxWnsCcXxCfi/WhoWBeEEVT/GFs3u8ebPRzXzr8vr3/n28LEpv5zO52nRXv/vN+v2atrK9fE3);lineShape=1;" vertex="1" parent="1">
                    <mxGeometry x="364.9947272081083" y="368.51313018332417" width="2.105536166357276" height="3.132726383448285" as="geometry"/>
                </mxCell>
                <mxCell id="20" value="" style="shape=stencil(lVdJcttADHwNr6gBZj/bzj9cZTliWZZcsrL9PmBYVDig3BRvFNVNDIDGMp1/+Nw/f+w6cZ+X8+lt96t/uew7/9iJ9Mf97txf9KnzT51/eD2dd9/Ppx/Hl/H3x/OAHJ7eTz+HL/weebWQpIEl7s/4RijyvxffRvyhP87xmUJo8OyIMyBESq0Bvpq8TajE5kSeqvuawM6Rcw3DO8oBmoiGUMgV6HVuCSFSrdDrzA0hBmIPCOpj63USygIIQqk2hMzEERCYcm4JGgZkQb/XOq1hKMBCKVRjSygUQR7K1cUroUIfsieXLSGBsCY3pWlGqMDpkG2UZvK6yfCBcrEmUJhUzn5xpgDExEsLZVLL7cxRSRbvUVETtzWtiU4Az2LLoSaqINHibE0rwQMPhgI2UorQQvDT92YEVD8x2b60QkjVdsqVI+WrDOZOg1ZZ8pSlO8Na3SLROHFKsJnGyiiRRCwBSS9rWI00sLiTWlgQUPlEsUdardCysQlImv6+s81wJln0JdTImMktEgFb5TQC7+3Fm/HitwyHhVRXpk+y/q6Mt0DSpmxlfgr5TQPabdwAtq4YWpmtvytLTCBv1iq8JemWZrYqvIbxdNr71jxv+wRTBfCF/Hly5/ZhPJV2oGm4UHL1sNXgA8B7oWLxSJxBtWXxqKHESEU24FMmtni45uiSbfHI35KW30fx1N0xt9WO86VjyMwZLIfNl4pVvD78v8G89ofDeAGa/29vPPpqvC35p78=);lineShape=1;" vertex="1" parent="1">
                    <mxGeometry x="366.43894661280206" y="340.75651560280323" width="0.14441720474885433" height="2.7536770927422984" as="geometry"/>
                </mxCell>
                <mxCell id="21" value="" style="shape=stencil(lZbdUttADIWfxrdnpNX+XlN4D2YIjYc0YUKg5e3R1mOIlkSd3vnv88pHR8c7yc3L9v55MwV6OR0PT5vf88NpO8mPKYR5v90c55MeTXI7yc3j4bj5eTy87h+W8+f7/mQ/+nV462/4s3CNUEKnAr0vV2JCan+v3C3Abt6fAxmlGCAJWnWAhsoGyIKaXSCJAUoEeyUltGyAqis4QG2IFmiMFh1AVbIltYLE14FCyFYlJgLRdSITJNolGtiRKRGq7ZzqQE4jooBtI2oFO4BUkAVK84EMsrrmBhIHKGMjUkV1VIphXCGqW5zO6W1pFggITklaQK4G0CKzs0KuaMkCGSE53lARrZlU6OB8dG+TXUFbGfyBoGFG6V8zykPjCLFcB87c/OkNWoPh8hI6MBbQofJa3UdysGtbX3FZJh36YUg1GJySeqzYkr6i53KrBeXbjFYnBjQa6wBofHozmhCHoVZZHTN1QP4HkDima09Dx0whrm7+BBKyE0yc1rQ+i43ofHRBtW4tDHHaEMYwzrym7cXn1ar2AxKvKXLteWuLSODg1ZNsYgRfUc0TWz831xQcR4GYkZweBxmBBHEmRz0x/Bm0AY6garpBofHfpgdfO47HebdbNizn98cdil5adjdy+wE=);lineShape=1;" vertex="1" parent="1">
                    <mxGeometry x="365.9892417274516" y="337.81563925971057" width="0.28575258411799287" height="0.28662917745510763" as="geometry"/>
                </mxCell>
                <mxCell id="24" value="" style="shape=stencil(lZhJcloxEIZP87Zdmoe149zDVcaBCjEujDPcPq1QIlLr+Rdvh3F/SD2op8U+vO+f3naLUe+X8+n77tfh+bJf7JfFmMPrfnc+XPjTYh8X+/ByOu++nU8fr8/Xv9+eimT59OP0s/zC7yunlSKlCmbUn+tXioz/98XXK3A8vDZAzuRNJ68pWSivUydvKaHfT5RtJ+/JZygffScfKUUoH8T9FQUFAamwpYBPcP2NdCRlMNC7gH0QNARs7AFHzmHA9QCfia1qe6WtmVnJ6h4IlCZAr7TTpLHSJveAr3b7FOgjz2UKaQvgLWXsOAlEytisAgj8eiZK954OvkbXvQA/kLAFiJrixEoCcBRw8Ekgkp1YqQcSJymUY0aAo3XbCR5nvUC6j9YUKaIkoGpWrAB/Y4CVkqsXuAGGPDiBjaj7F5cdRfAeQqYorhTIg9AIpt74BiRSwEreVL82QAYnqHr+TT5TAg9uqFUsH4FR9Yp8APexMnOXagfiKMqoKPLoPrq6tAWAz3Qgm7YARWU3AMCkXF7VqDOIO64cK0YFr9PkFaUjSHoMBD0AwA18pdEPqAlgpc1wQkY66OEpMACyJDtO6NB0Wp/FRsybiCgraLkT0NrWCt7KAz9wKA2xl0B0821Ht4H7qBrJbSABm5rasrTy4P6+1rE2skH64kZQmQFABnJVv3uf8y093HlCaZYHmyIdSkoaUioyEj+28SlAL2wGguy4uSokAHDnqMe6A3RwtmbptrKB5+wVZZH0HOzpfRregoF+CPx74gSu/yAPc3XOY4cBalU0pDb1MCsA7pJWANyHjcCk01sBcC+5AuBudQQm/XAB+gc06bhXANzTj8BkalgB8FxSgD74JpPPCoBnqwL0T3QyvRWgbz4n82EB+qwxmUALIKZoPONy5ORNU3QBxBSN53QGkijpeBNQgF7pya6hRL8A8DaDAZEq8bqE5V2f7fE6huVF/cHrnqhkgcPrJJYXmwy8rmJ5UaIV6clbk7+v0X2czC+qVop1+VAHlkYexdytRWvkQcglKwcG3EOmUAe0++S5ijm74T55KM1YXy7cZos9xzUS9lcehhEcD5v3o3cA/OH/OvblcDxet7nt/+X6lr+6rn7t418=);lineShape=1;" vertex="1" parent="1">
                    <mxGeometry x="374.78178195508053" y="346.1291185123487" width="0.4336968508790629" height="25.66835054311892" as="geometry"/>
                </mxCell>
                <mxCell id="25" value="" style="shape=stencil(rZfbbtswDIafxreEROp43XXvUaDpYixLijTd4e3HzFMSUfFfDNid4/CTxMNPypM8vG2fXjcTu7fT8fB182N+Pm0n+TQxz/vt5jif9GmSx0keXg7HzZfj4X3/vPx+fTpbnp++Hb6fV/i5cJliPUPsfi0vPLnw58XnxXw372/MfaKYe3smH9cBLuT6DTiQA4Bk8r4DhKm6dSBkyqkDglAAQKz2SDGQpHUgu+ZiA1JsS9wHKgXpgBygD6W2EzegBMqyDtRKlTugFhJwpDNQLFAYAqmPkr5hfCSXLBALAAr5YoECiq9qabAFKtohkXMDgKKkaQrDkUC1KuAGIKIdtDb9EFbktJA3PmjiUB4USBb4u+caYDStgENAIDalkSmhPMTm4g0QgOI0cTIAkmFphDjsgHzQmGQLwMRpmooFCnJaK8fbsDJw2js3lGvBca1NwjfF5EGf0b9lEETAGo0DkD9IxCDqihSUWmIvE+Uah9VqGrfA9SqD5hIWaRx6Hyw/1dwgofo/gaJDsB8pJcLayNyq8zKDIhUQ1iSUes0lbZ/gSJEp9keKscn2/qT2tn8HzQzwQVybaZe7gMA5qrcX7suVdVKjZmk38AJbn7Np820Or5gbQfvWatfMkzFneBjp4++owNVNs3DwMN4K2TUV3Q+9FaWGCgRe7OxX30Egg70U4hZxSfqNOei8KoxqzFHcEyW7egCu5rbY1TyD1f/xRv6huT5cL/8v8263fDvc/m8/FvTV8qEhj78B);lineShape=1;" vertex="1" parent="1">
                    <mxGeometry x="373.385135371301" y="368.2524028553737" width="1.6544870514818202" height="4.338897537229617" as="geometry"/>
                </mxCell>
                <mxCell id="26" value="" style="shape=stencil(lVdJcttADHwNrygMMOvZcf7hKssRK4rkkpXE/n3AsChpwLCT3Lh0D7E0Fg768LZ/et0Nwm+X8+nr7uf4fNkP+mkQGY/73Xm82NWgj4M+vJzOuy/n0/fj83z/+jQhp6tvpx/TCe8zrzWqOrGEP+YnSpx+P/g84w/j8R4vy+sFHzIF3SZUodw6gjQqcZtQEmVnUSMt24RcqHFHSEwCfEjmc+4IOZBWQAjehxKogS9EpVg6QjUCiJJm4tARGpPyNkEqtd6kZnEDPpiHfVQt8wzwvETkiq+kGeG5T0IrlECaLUWxx2cqguzn6v1tQBVCUTweqShSWOEZJMAS5vCRKojnSqTT+UARjVLx+Ajwgb2oLaAMEhCCrzMj1AAJ1Wm0LEdsEdSZVCkik0x0fXMxkQZQZ3Xlc4NFUIiLxyMRJQr9+YEZqkL/UGUFVE1Y3t7hBVZljj6iGeTMrHXnF6qgygzvukpe+swGvqyqWEB8rAuuqiyBBCsl9XgG9qRV17KqBPhC0jweNfbmp5/ZI0BApui4atMoARNh1ecgoS2D5UpQEiCJqQj6nNVKBWhOoy/jypTAF6IsVX4dlwxVavM69mHNTAERbBb1X4g2D4EPOfn2qxV2x2JrS2+SNZsIKtkGfOpNChGWjkXdbV7WX1Gvsy1IHB5tCLZAhN5lhu29hWWPu+EjwovPgX0QRNRkmYvDo1Z6m4//iM9epgxnx7SfeHsiKDTrtKn5eCJ88/ZYvlA8bSt1AqIKW8tq5RKo0P9e9f+Kt4vbf8XLeDjMvyX37/1/iD2a/2H08Rc=);lineShape=1;" vertex="1" parent="1">
                    <mxGeometry x="375.4605993144171" y="369.9509478395785" width="1.198507329989876" height="2.7552404088659572" as="geometry"/>
                </mxCell>
                <mxCell id="27" value="" style="shape=stencil(lVjZctswDPwavWJ4H89p+h+ZiVN76sYZx+nx94XqUjFAeWm/yfIuCWJxUZN/eN8+vW0mZ95Px8P3za/d82k7+S+Tc7vX7ea4O/HT5B8n//ByOG6+HQ8fr8/n329PM3J++nH4Oa/w+8yzxpAxM82ZP/9fkUv/Xnw9E/a71wtCrVStxBvKARJKFARnyBpMkDu41Ja4RshZEHwc7ZClSSGQHezgBSF68hkTnCAkR2FAkIfOhuqAIHXLhQrWwUtCiVQdIBTy8tDVUkU7RCpSh5rIF0Awbb2FUNueq4TitUkX8bvKyIFclVsUsmCLFJqwCyFQAW7iSDBFEgwFQAicL0kKEajW6wQO/yrDlaV2wK/Wt1hbCBZG35LBS7RGSqAIGHJZ4z3EG6fxSDXGS5lZlQREMzq0Ge/weWVQJE8VOZRC1PgM1nfknMYnsL7v/ONbdl/B584eVCE5pqP2jwERF7r1AwWL8NVpfAbnXTLqIh5Q/eXdi8YHYL/v7Ikt567gndX4CuKNa7nv8DB+UpdfqPR2dXG2H1ReLjim8w/Ox86fFtpjuvzKQC9u8EXjPdDLUOrWNyC/bKcXxz/Qi/tW0niUX24lv3D+xj5/YX7Z3J0X2HMv3mayykG19eb1AxiKUrGcKKEm1vXVsiTReptMuieV0rJ6vRFnilKE6qAIbHFR8wruYiV380qmgAYcq/se75DBoSsHhiJYWIh41ohSOB7SCibU+8ZArr1SuNGg2RFGo2zQbh0Ny6Ed8dZxPGilRwM/E6SXRleKrgOOLi08oEgvja5FQde8wb0rtOBveNOmwquBYRU+IRFiGyk/8WiKnSM/KzzK//kqEBUelXjGV20PKnmcusnfgy/N3TfaU3TMDc7LNxl3jz+rDqCBXlXPODge7r7o30Dgh8/vCi+7/f78WeLyf/0dgl+dv2H4x78=);lineShape=1;" vertex="1" parent="1">
                    <mxGeometry x="373.35506945585485" y="337.8818470612656" width="2.3840459079439245" height="5.081543684919851" as="geometry"/>
                </mxCell>
                <mxCell id="28" value="" style="shape=stencil(fVbLbuMwDPwaXwciqec52/2PAk03xmaTIk237d9XhiEnVGze/OBI5HCG0iC798Pz235g9369nP/uP8eX62GQXwPzeDrsL+O1Pg3yNMju9XzZ/7mcP04v8/vb8xQ5Pf07/59W+JpxwSHlCcXue/5SCDJ/+T0DjuPpDuAZxWtAgnPbABEk0YCCLNsA9nClB4S0DaAA16UUwX4bkBBYxzswGRlBdAWZW4qr8a4R0uITIxn5PPQgCsiI9wiaoODBRj5EcLoAn0BsAAp8B2BTFZxRdMneIURDFRk+aAAhG4CacacKH02SgqCQZqlK19ghZJDeIVIjeh1QWdKARHZKCVE3OjtEwztTxp3yKtGWOwOSprUEeKPTEpEfzMYGoJqHdQ3knDkAKKF0dqs8GH6u40FrqTC8UXQdMFGT5FGM9V0v7hQazRvx1NkzQqyJB9cJL5njIiPq8eVrCwyh1nh5iDf5JJ1PNZ81HombAhqgNj0Gs8MpaU3ktue6iELvflpIXqfUI+saPMTYoPpAtIYcslFBiG25W7yl6ZjagbEU0BJcP3ESRGu0Di+jZXn5vazP5qFZpA30pWcEb1RQPZi1isQ++O9sfncosNqiPtwuGq/j8TjfU+7/9xeT+mm+1MjTDw==);lineShape=1;" vertex="1" parent="1">
                    <mxGeometry x="374.19958758363896" y="334.7947853877792" width="0.3058374985611904" height="0.3061196082209831" as="geometry"/>
                </mxCell>
                <mxCell id="29" value="" style="shape=stencil(lVjbchoxDP0aXjW+W3pO0//ITEhhSiFD6O3vqy0xWctwlrzBrs9a0tF9FR/eNk+v61Vwb6fj4fv69/b5tFnFL6sQtvvN+rg96a9VfFzFh5fDcf3tePi5fz7/f32aTk6/fhx+TV/4c8Z5piATKri/5yeOIv9/8PV8frfd9+ed684HYgfOV6r99wsJ+n6lErvz3lERCMihB+T25BYgpV4DTzFCwLtFLoBKvADob4ipaXUT4DtAUpGwDoa1pGbAVgq1A+RIYeGG0gOU+QVA7on2JBUDeiuVTB65ElPudSjqLOU2QHnl3leLQGcNmbgXqXp4Q/SUDSBSygBQm00ugNyYuQpIiWrv3rWSBzxklbj3pSqQOOU198SxJ+dvA0qi0JuVAwm4Qa0e+gDiBHlQm6ReaS6QB3bWSswUAQ+cqRilhQSIJI5Sn5fEUwIiSSTuRRJsJSlUeyuJGhrwIGJTpeQm5PUAcs4mb7303YGvm0mzd+/f06UgzyhPyVsAAyXUE7xYgCDAJTPOAaCiVCbfizSzw3WEeid/6grfXs8BOCLqaCYEYFshFFCBDpoaZTBTBv6qN+RBB+RN1VGIFhABczU015kBUA3SNDBayYNkqVSb7DoBUN4ILZfOAci/1TXyoAMQSQNiBKAGS0NOBrNmwDQPJWWKURTU2oEVC6hIh9zqwdxbkQ6hNVTzeAA8aIkyJWUxRjPJkJkEMKfex2OiAWaqzrZ9k9agpmgElYGICm4o16guqPKybZmmGAXMfRqg2dVmAa0QIAso1ckAtAihCHJDJkswgrTfqcZKATOdKJkq51uLcysbm0LK2Je0A6qmA2KYK7PYsqhBWIFIH935vGUCIZe4JboLIMIuLoVWDmZtH2q/Y7ZW0qhFnWhg2zwolSjfh6GMapRHNELopGd63Qj7GbGupJW7Aoly6zrnAwT4frCeN00oaNolZ2amhRGInBmZFmYse35piGtv750SbWFYGENdC6s751w939tnYZB2rXW8c1J3tjgvrAJcq5N37hqc9Z+FZYaz/oyXJc5uAfAuZuj+8arH2ZXB5br7fNm1mn4jVKIVxgPLR+sJqgxw/NyGudlxwBPbOMHNh7IYBmnQeVXWLtlgGCa7QMLaqheK/T4y5rirwVxNS79ozyNX+PxSceG8/vjYYL5sd7vzAnT+3m489dF5Wxof/wE=);lineShape=1;" vertex="1" parent="1">
                    <mxGeometry x="618.9705709154978" y="353.9836634120291" width="0.7032188108219501" height="16.793258984552505" as="geometry"/>
                </mxCell>
                <mxCell id="30" value="" style="shape=stencil(lZZNctswDIVPoy0GBEiCXKfpPTITp9bUtTOO2ya3L11biQhZL5OdLOEzgYc/Dnr3sn143gzCL6fj4efm7/h42g76bRAZ99vNcTy1p0HvB717Ohw3P46H3/vHy+/nh7Pl+enX4c/5H14vXAhU85kSfru+oVz/v/h+sd+N+5m9KCXr7ZUEAJrJtAOUKYV1IFbKsQNipsLrQKqUuANSA2QdMKHQn2CBUloHavVATVQKBIoDMmWDQC09YJQiBK4evwOFFLlUKNUeaFGBPDQHhD2QkUqJknqgIkDJ0gJAMQjxAjCQ6cqUgwcEBF2qL++zbhjwLhllEEMDgpO1VSs+wYIHGPRDC7q4PCRSpJKQOiBSQYmLxNkDn5SGdynixBlF8zFcz1wrb6seyLiBsnlZI5A1ME+yz1IteGyYk6nglitUF9VXwHBtDvjaeB+Gt4E8OTAD4CSLpH19z3RYq6a8mBsFZSLc6OqIO6IsdDVQHF8GctuKvUymsMDb0tI+cwkPGi1+4Mcy9cjtxZv8sFSZ5u3tehWyfgeFRBUA7BsiUgRpYwrOn+m8FXPXPAqriCf1JnMhAfuTyXo120IHVR18qAz3jvjpxbDJIoXqzAMotjTtiw9zpMxiLTdz1CzLUFFdhkWeWqzA+XZ/DOKUZ5Cor943P7dvDx+X26dxt7vcjeff/WW4vbpcpPX+Hw==);lineShape=1;" vertex="1" parent="1">
                    <mxGeometry x="617.9207274970759" y="370.3445860129078" width="1.0594594227322058" height="2.1732868930082945" as="geometry"/>
                </mxCell>
                <mxCell id="31" value="" style="shape=stencil(lVfZbhsxDPyafSUkUudzmv5HgDi1UdcOHPf6+0pdaNeivBP4bY8hRVEzJDXJ08f+5X03sfm4Xs7fd78Pr9f9JF8m5sNpv7scruVpkudJnt7Ol923y/nn6XV+f3+pyPr04/yrevgz2+VMIVUrNn/nL5YS///wdcYfD6dbfCDX4x1FB/DFne39G3J52yBF8qE38BSQgaXYr8BMzm4bREc5dgZiSNK2QYgk3BtkuIJPlEyfpEws2wbld5DOwGcyERgYvemQSECWhCn0aY2BEgiJPbneIDkyIEs2tyQuBpkyCMk64n6F7MgD7hXmcH9wuZDFbBsY8n1WV7Zv4G3WeEQMQ4Y13oCcjvjUTmUDz0bjBfCu7NdrvEEJJWN1PhPwbwf/kSLwz2QH/6hYsFZBjQfkX8gEvV8L4hESp/EOxCNaAnkR9pb/gT8WqFjIeo1HfGaKUeMj8M+DXooiwX5tO821VhfKgoAs2fDIAobCuAEsgCGhqHmYgRC5pXgLPwgs4gIxCNgBwpn295agUMBpEFgCB2xJhoIYQQGylAeBYQG7wT+aDnjwn2BBfBQfdecu4wg6X7sMM4uBtF5+3yC0fC9NrEgeMLRuoa9xiVuQ9zVvWhddGrGnCPYgSZOuziOARC7qsl7mEaRiH3SddokYrBAchV43JUgHVojc/C0zWumsIK0xUe43XbkOslSGE1Va7PLlvkFq489CDXJggUKc0GtT4GxQmJn6czZNTPfxUdfSZdrZwnur8Kj3FXzWeCS1OmqwxoMjrpVTNB5dDLKmdYkf453OD1JB7Sw6HjRc1s6l84Na001rXG9OMKHLNLziP9lA0jczjwj36E3uU3x5WK+Nb4fjcb513v7X18zyab6iyvM/);lineShape=1;" vertex="1" parent="1">
                    <mxGeometry x="619.0140652494297" y="367.5972160835781" width="3.7508519192988383" height="5.670242353813818" as="geometry"/>
                </mxCell>
                <mxCell id="32" value="" style="shape=stencil(rVjZbttADPwavRLc5Z7PafofAeLURl07cNzr70tVWFtLSWMU6JsscbQ8huTIgzx97F/ed4Pnj+vl/HX38/B63Q/yafD+cNrvLoerXg3yPMjT2/my+3I5fz+9Tr/fX0bL8erb+cf4hl8TLpDjEeT593TDkXd/b3yezI+H08w8U6ydeaGQt82dJwn96zO5BACJOHaA0cO4DfBMIXUA8eSBSz5S6EMIjlzdBghT7gGRYdCSWgpvgEoVJFUdkP6EVCmAoEOi0J+QCwlvA6Ke0AOKpqEAgJ7Q86IyRRB0cpR8D8CFS8lSqUbKiHpapmAB7AFA32cAHpKvMJXcZym3NKwDEiXpAeokiKE6Cr1L2Tcn1wHaD/0JmugoEGC5xFRBHRRQ2QIiSGvN7fEMgDqultZfcwByqVARCwgoS5WkWEBBWaqUi02roBi0gw3AQ/KNgGwBGXBpdKmffEna8NwMOlhAAT2tabVBh0d1MB2ngIDSmttgnAEEuZSoRAtwKK1K70WWEiqcNpCzAAbjXodKWVQ6IJci1X4DKZce9LSPFuBwT2cTA1NCJ2Q77hUguHCWrdqiCFDs5BtPQFyqdimOMSBqVEqLtDoMqMECCug4x0xsRp+HW1GPsHSV1iL/CRDb/rgtiNDm8/oK0hOMIgtwBeljXmz2AlxSaWFcUj4GsEZ1USez2WuTUOtSIJLvSz0rzbo8UTb1TaoMTggglk1V2qJcl1ilSYWZFsigI4KOFSMe8FqUYguhiROQVxW2ZdERSFeqWg/9po4eKlevO61Pq0aFek7VvIlBApwb+kEQ+7nhE6Yr5T6rTksPCi2Ny3cqwQ10G3O3AGDAvPg8gUNsMWA81MRsKeTalN3y3ZqjNXIT8M2coSBhuxIYsnOhbBkuctdE6d0cNby3woLbWt8wX/iO8i5N1dzNkexXjnmbSNBV//iJ/dBcL+5f82+H43H6M2D+3H79663pnwN5/gM=);lineShape=1;" vertex="1" parent="1">
                    <mxGeometry x="618.970583381544" y="346.91443141213483" width="2.9685096901758614" height="2.9147489297144538" as="geometry"/>
                </mxCell>
                <mxCell id="33" value="" style="shape=stencil(fVbLctswDPwaXXcIguDjnKb/kZk4taaunXGcPv6+0KhSDUrGTSJ3RWCBhTjw08fx5f0wxPBxu16+H36Nr7fjwF+GGMfz8XAdb/o08PPAT2+X6+Hb9fJ5fp3f318m5PT04/Jz+sLvmRcbQp1YMfyZV1pBmle+zoTTeL4nRNRsCQ01PSZQBqeekMUhBEx794SMxo8JAurwhFacAyDN4Ksgtsf4gBAMvhSII1GAkMFnP2FGKBYfF8l28VogG4/kZWU/380BEpE8gdqyvRICmpOBluBfgVaClsCRlAnFtp0IxMmBc590JhA5hAbuqlCXvtolJG07SygZwctBrWMJldG8kATVElpwrcOqemfODHIKp3XoWlW9xo51qC6qLwQKa7vvM+ISwXpEBTmEjNzh2U06Qiy+FuTsuY1tBnUt5AM8dW6OiM73Yy9pTq6bBcVOF1F9nGlBtHEnQ5xGnQh5Q/CKrG637tReFydlHdnR5hAr2NNIT7Aznoo/8jYzUs3k4DXgYA9gF6/zKlmN/K6ehknt8Y73C/Vdyksb7uKr1oy7fJMTf93MFnUqOQE16QWaFHUiUtd2EzgRovtb3vwHJSEaJ+vD/4vG23g6zfeU+/3+YqJL86WGn/8C);lineShape=1;" vertex="1" parent="1">
                    <mxGeometry x="618.5373044836736" y="343.38722112106547" width="0.42456711519000895" height="0.3481098884841768" as="geometry"/>
                </mxCell>
                <mxCell id="34" value="" style="shape=stencil(lVfbchshDP2afdWABAie0/Q/MhOn9tSNM47Ty98Xd2cnRmwP3rc11kH3IzHJw/v+6W03sXu/nE/fd78Oz5f9JF8m5sPrfnc+XOrXJI+TPLyczrtv59PH6/P8++3pKnn9+nH6eb3h94zzzpFzVxi7P/ORoxD+HXydAcfD6w2gZAqtPFNSIK/E0sgnyuj+RFIaec+kBQAiaW4BSsoQIKH1IJDHGpxvAOJJHQAEa5IUyhECUqshZOIEAaGNUkykggFt2lKggn0wUVKmiH3g1iQtyxX/BaQGkGugsdOmlHIhHWhow1pP/EBDG6VSlsysAzzlYgHIpOqi7wCoNDRQ7kwqINOpmsQdAJR3UEqthhtSWEWIUAqdCkAC7ElyBwBxrT3vOycyAFRSkS4PwIW0VNqNfEQ0tpLnANJWOah4C0DdUDVIl2cGFgWm3LnAoDCiLrV/J0AdaecDMikzuS5KkALcSppRWItQ6SoP5k3I65bCyEq5A6DK02y5e1DbqU64uKV7ItvuGTZoXkk14gBeoyXEMn6NlhCPVYu6KCGijCv3IybeLq/GYTwaqnxbFoPZE5d/7xxu0fbaYHpGSm2GB+M5WpIfzP9IsbVnsGBEu7YNNphI3Hb+YEUKS/3euYMFG5/BkhesPYMtUmzXD9ZUtvWD12Bv04W37I1LvF9I9lNcYG5VjDiaGzUSMRt5j0Zf52x1BzgrvEyhG3lgT6hDw9qD2LNWurP+IvmkfXyQPXViBL/B3zqSgr3fDzZxGx+Ur/qki1vKYfOb8Q5A/fh8or4cjsf5hXv7v33S1qP5OSyPfwE=);lineShape=1;" vertex="1" parent="1">
                    <mxGeometry x="643.4505721916876" y="357.7800258554329" width="0.1286442407812997" height="14.623232092253962" as="geometry"/>
                </mxCell>
                <mxCell id="35" value="" style="shape=stencil(lZfbbtswDIafxrcESZ2vu+49CjRdjGVJkaY7vP3kGfYsyvmL3jkyP1kkf5LK4B7ejk+vh0H57Xa9fD/8Gp9vx8F9GVTH8/FwHW/1aXCPg3t4uVwP366X9/Pz/Pv1abKcnn5cfk47/J65RDFMkPKfeUHI+X8LX2fz03jemIujGFt7phDuA+oplAZQJc73ARepuAZwgVy6D/hAMTWA95TAkUIkbYEQqMh9INYgSQPE9ZC7QCoUfAOkvKzsAqWQb50uibRAIBcLZOBDBYoBMgxrBZKzQFEIiAGqVwyATBoskCIAEkmxQEE+ROLYASisftlvA2SQ6Qqwt0BATrsl6huAkTQccZeHD75gj5So4C94tQBMnO8yXesBJS4sJb8BIijR+lqSBaDTiZx0AHK6qj9YAIqvkIqNkuCaTskCEWhJmInZplpAr5zEGS2Q8Jl69SnyumqtAyKu0dCXHGobkXwr100c7qnJafcJrFfXdSaUiVoRvROKuutngeRI24rITAIqIop1OmY4eP3auNYpl5ZI7w/e2r9bH/w6KPcBtkeaZjdwWpIdWlqvE0DfvTQE1ijb+aAUwPZduSkJUCrbviqwh9XosDEXMHqYUiuIdWE/lvbCwDC5SmrN0WGcbfAMZ5S37R0XcJ0GYs2Bq4Gy3R21rDpZvDFHdVLvWdYcafiT9+UPzevD/6v5y3g6zTf77Xt7la9L898A9/gX);lineShape=1;" vertex="1" parent="1">
                    <mxGeometry x="642.5344186857151" y="371.13234126251916" width="1.6365684282568922" height="3.274550915787544" as="geometry"/>
                </mxCell>
                <mxCell id="36" value="" style="shape=stencil(lVfZchoxEPyafZ3SjO5nx/kPVxkHKgRcmFx/nyFbgtVoacpvy9ItzfYcLU3+6WP78r6ZxH2cT8fvm9+71/N28l8mkd1huzntzvo0+efJP70dT5tvp+PPw+v8+/3lgrw8/Tj+uqzwZ+ZVIckXlri/8xsm9v9ffJ3x+91hiS/kYodPFAGenSPn+g0iSYI7cOoIIhQqIHiKpSN4pgRiKpFq/81BCXKfkJMNKQpxvE9IkYLvVRJK5T4hBvK9SlkoApU04lo7QmFyQCXJA6FSAN/AQi50hFpb7tcJbDOthJBB4tq/C3wGImVKw/oVaBRtXVzwQCLfqmaBL2B9brsv8BGs7ygP6wsjvDPxF8ogAYrPFi9Af42He3ymAuLR7xWLD6BtfFNjgUddE9skWeAdiCdTjAM+wHob1hcQPzs7J5QAh522zKBQBREpIZgSKlBSJUi0hOpgUwaT5EoehaRVNFRpAlVdhohqq5P12dim/9UPbhaxPuos4cEGsjZWkERDm6lCsM3EDynAbewsPoAqcitlWmE8n8NztgIVHJDaqUlxUQ1QxvzgZkwFdb7aX9846pcOhJRC66urI3ObBuuzIlgzUAdlUEVqp6b5VQYPProk8n0etBI9OoZc07Q4GQVQSLoDG1lJkF9qn/QRMWwcxRtDeKCp2uNwdkSTwpHvDcFRAaNIUyDB4NH4Lap3NnikT/GUxeAZZTg2u77hkT9pvnK0eLT+MEqvJ4B1fLUHFtcWWPc/ldsZPDxYc5ubN3xG+M/eJR7i9eF2cXnb7ffzvWf5v73o6Kv5kuSf/wE=);lineShape=1;" vertex="1" parent="1">
                    <mxGeometry x="644.4803206588408" y="370.60898164192065" width="1.0073352240707125" height="4.198168016410477" as="geometry"/>
                </mxCell>
                <mxCell id="37" value="" style="shape=stencil(lVjZctswDPwav2LAG3xO0//ITJzaUzfOOO7194VGpSOC9sp5k+VdEtcSoDbh4X339LbdeH4/n47ft7/3z+fdJnzZeL9/3W1P+7M+bcLjJjy8HE/bb6fjz9fn+ffb04Scnn4cf00r/Jl5jpmYJ5rnv/9fkZ9ffJ0Jh/3rglArVd/hC4mDeMn9+kIuA0Kh0m8QmGoChERJOkJkcsik0DxshMQkFRDYmpQdCTBJ1MXaB8lT8oCQKMeOIJ6CAIKn4jqCGpmA06XaKNUM81AiVUOolIHTWaiUPtMfxXWd4Yh7rzX5HnidfKuEC8HDRMRI3BNEd4i3CSFaJ0STD8LkNXN9mEqgEm4TXKHYZy5nEkAQSr1FSSVVbuO1+E11OyiH4QBQNRQQU10/WnwA6rnU5QLPwH7X/r3IWf0F2nE2Y4rPYH1VYhjwqCTIZ4tHCQ5U2eIrwMcm9EV8PMhXbCpc4BOo0NiiscBXEM9I0ayvHQHEUyXmLD4BfGjVssAXIHo/2O/gae2oDvYIWN8N3cBBxTPlAZ9Aftn2gimeIP48xJNX9M5DfhM4dVWt2eIdXF9GPcL4j/oqoJ59q6679cijfoE9wXbKyX7UM1qDWMYH6jEN+o3A/s/inadoEiZtHrkeUGcVlhMmVDt9FA9LOsjQ9Go7Na77XOzUqBOPgCJN2Y5cFasm6zHal5HOhWiWUBelj5IOH6iuS6LAdoeECEJhmNEcyLQMR5GOeaj05DJqLBKHnJZMvifoDJbRDkOmtVozGt+1ffeJC3hc0Wmc+x103i+IkMj1O6zdKJI9IVeuLDr59pWxciXS9XuBcmtBt/DmxGN44Ck+e4OPyJ5s/cUDheJNR8MDmurEdDQ85k+6GtZHeLET0Yo9Yg+XFX+rPSpW4lltB1nJ12Xeu68ePn0Hv4OgDx9X/pf94TB/MVj+bz8R6Kv580J4/Ac=);lineShape=1;" vertex="1" parent="1">
                    <mxGeometry x="646.2500481552104" y="351.4963906292699" width="2.5655338556498464" height="5.317508762810699" as="geometry"/>
                </mxCell>
                <mxCell id="38" value="" style="shape=stencil(hVbLctswDPwaXTEEwQd4TpP/8EycWlPXzjhOm/x9oChyRTLa3mSKK4D7gDnI3cth97wfvHu5Xs6/9n/Hx+thkB+D9+PpsL+MV3sa5H6Qu6fzZf/zcn49Pc6/n3fTzunp9/nP9IW3GSeFYplQ3r3PK46c+1x4mPcfx9Nqf2FKodqvkVS3AcqkUgGKUAEVUtdRUcp5GxATeVcDChXQUhByqQZkCn4bIEyxATBJ2AZ4v3ByY8mTlG0AZyqxAmSrCVgygK8rxELKoCVHpRYuKMUIAPa6BoiSgjOYlXwtnPGmgKXoWx2sJoOWUqQoLcADlrK9Tm1LyBqqrQ52Kga0lkQhtrQq8BK7W8AWRHK4hPHKrTcUZTQQd+5LgFeL8Jf9V/6OQLkspPWpLUFf0nyvnKNUe2PFw/chzSRNT0oJSCeRuAEIZaCEj0skV6MsgVOzWaFORI7kwWSykLq6pWQtAamtgq95tYwwqGBnSLU3Ai/SbAJcB0gw1c04tgEtoIKYrvUZkuJhye0YsJwLUJql1WGyF3Lf8v9xYzWQIFZJGo4SFbC/S/Q0KQFF/X5HAUzWrp9pBRDUnZcDnHoTobVkipPTKSaQn94S9gEQA/NcY1I8K/5/ibGHfzegp/F4nC9Q6/ftjcmW5tuW3H8A);lineShape=1;" vertex="1" parent="1">
                    <mxGeometry x="648.7934153290846" y="348.0672023915691" width="0.22416323831459356" height="0.2578218423952256" as="geometry"/>
                </mxCell>
                <mxCell id="39" value="" style="shape=stencil(lVjZctswDPwavWJIgOdzmv5HZuLUnrp2xnF6/H2pqnREUF4pb4qCFbE4FqAHeXjbP73uBjZv18v5++7X4fm6H+TLwHw47XeXw7U8DfI4yMPL+bL7djm/n56nv1+fRsvx6cf55/iF3xPOMQU3otj8md4Y8vLvxdfJ/ng4ze0t5dDYC3GE9q61z2QdtLemsbeRHHLIUGoJsCODAcG3DJjYQIDnBjA6mSDAtQBviDFAWg4+1TDfA3BuACFQRGEtgJZ0FHIrAGkBiVIGACFpSSchgwCxenwDBGJ7H+CZYutSShRApn2k3JLOJfcg00EoKQCTAA4liKYlnUvxgcQlR65NXPYUAemcKbdRKm/+V9c9QIga4AGHHEmsBkQPAEK2AySgASmSNxqAyjtZMi0HawwZkLnolo4ALRcSuS5MGcS11EbgjjUqpqICXgMCYO2zbuox1SBz5QTuOAhoiMKhPwEpWYmSru8M67s0RFYuFSUDHFInriMAFVOo35u7BPJQWjj0ANwQRjQACdPYYF2mBXCYVfO8SUHmSlCkS0RErN0C6wQEP+VOmW7SswwoxRQ6ABLLUMt/c1eXuZg+41PwWjhG1kDLgl3oCKTHpUldp8cenPBpwDhIVW14SqBJy/qie86RBYlgT1YVE9ctbRlgqqzMBykqcF9VYj6qAQdrtNCMywDItCevDpC6OC5T0CvZyjpzm/sb96Vi30rAykLGOskrGx/rdWxlpWSyrf3Kzmq1qq4sxbbOvo1btyXfdsHKWn/zdtu1wdTq2nYr6eQXX3qMHv1ltAONYN3xOFWeJChzlKnbLPowR9PMCkX9eZioVJe/mT1qLKl9tNE+VTHb5o9IrZNtfCXWYG8L53jR0bUA72qslQoXw6cv2Kv25eHjNv9yOB6nHwPm/9e3//Jq+uVAHv8C);lineShape=1;" vertex="1" parent="1">
                    <mxGeometry x="891.5232068019504" y="360.9218452024677" width="0.30168282098285004" height="11.938069969982156" as="geometry"/>
                </mxCell>
                <mxCell id="40" value="" style="shape=stencil(lZfdbtswDIWfxrcEJUqied1171Gg6WIsS4o0+3v7yTOcWLRzgt4pNj+TPKIoppOnj/3L+66L/HE5n77vfg+vl30nX7oYh+N+dx4uddXJcydPb6fz7tv59PP4Ov1+fxktx9WP06/xC38mrlAIIxT57/SAqfT/H3ydzA/DcWEeMvWtvVLI9+2jUeHGPihZvA8koRgbQMIc4iaQA1kbUWJKACiRpDRA/URO9wEVCm0ORWDSvVBpPWgmBUmbkbY5mBIDIDATsyeKQheWW6AnAVlXIKsHDJTG+NolUT/BEGDxQA90vYlyLaabDttEJjPvwgQCnD1QUEyJ4spDMAAI9ex1zRgoTiZ8hCqg5oH4IIe2Xq3gpKtKwQMB1Ubdh9QCtZGgpAuZrgCUtM7FuQCswOrr1ecgqJZqNWcPwJBslbRSAkdu61T3FB40DvGAoo2oxem22nAbuHaJBaD4kMrKg6HOVGVftQHYaPJWSMhDohxXSaPakLlJLGTtUW18FtDa+9ocVKGsRecmcb2EqgwAyLU4Ww9ZoEpptQ8pzvfYJiDqi0+EMgBiotTuQ502ULUGJnPTA8ONC17VBK8Hpty2MRw/+7Mjs7s75u4wR0qg5bG/eQLs8lWI4MwFSFmFbmO/SntHSFFnjq7yuJ4iIzR3p4XnSWC70Px9hi/9RCU58wDMMyUfjIBgPjkwPzSvi9ts/jYcDtNov3zvZ/n6aPofIM//AA==);lineShape=1;" vertex="1" parent="1">
                    <mxGeometry x="889.9524109231411" y="370.3469453360066" width="1.7960490891986904" height="2.7398103397759273" as="geometry"/>
                </mxCell>
                <mxCell id="41" value="" style="shape=stencil(lVZdc9pADPw1ftXovk/Pafo/MhNSmFLIENI2/z6i7oFPtjfDmzG7vpNWK2kID2/bp9fN4PntfDr+3PzZPZ+3Q/g2eL87bDen3VmfhvA4hIeX42nz43R8PzyPv1+fLsjL06/j78sX/o48KSTpwvL8Mb7xVOTfi+8jfr87TPCOmZg7gnNU3DpDmFzoT4iUAaE64v5KIRKDOxVHTjpCTOR5nZAqxZ6QCpWwToiefE/QM0sBaYoUc0eQSg4RAoVkCRIBwVH2PUEogRiEYrJ4AUkqxH0EE+mXk0RldqHq1/Ge8uxCoYKIWxFMMoRE07qrPV5rHeI5WjwDyZiykTiTB4p5axxJlEB+QpNngkf5z63ArvgIjVkp3YV3TDVagiDBtJXkWcQgAnWN87OUoivpjWcaM9BYCblYAnKB+rLMqw4RtFXMyzrDtP4PceobEHSh2ofwlTETxWoPEHBAsM3u0lkSMmaKNkUCjRPZ4pHKs4mjmqGMMgWjcaYEv38fXp1jAsjSet9yZ9S67gkpNRGXFbt2kutECy3Jy95P1mpB6xAYoUQ7b1R2BidU35rntex8m9NrY9z039CcsYb3vQwetkfFm3bk4LjRAKoZaG1tWMZHex9uvWMZn0jE4D3ojrU0E97wDKq6StsHJnjgenFzvAP5kUCVDT6ivU7bijf4CvRVU2Ux+YffL63p3OoBjeN7N9mv8fpwW5tfdvv9uHVP/7drtr4aV/Tw+Ak=);lineShape=1;" vertex="1" parent="1">
                    <mxGeometry x="893.1025218871209" y="369.9517662042913" width="0.7932270467505408" height="2.2087558571210115" as="geometry"/>
                </mxCell>
                <mxCell id="42" value="" style="shape=stencil(nVfLctswDPwaXTEEwQd4TtP/yEyc2lPXzjhum/x9qWrYiKS8knuTaSwJLJYAOMjD2/7pdTdY83a9nL/vfh+er/tBvgzWHk773eVwzV+DPA7y8HK+7L5dzj9Pz9Pv16fRcvz6cf417vA+4dgYMmaEWfMxLRly7u/C1wlwPJxmgKTkantLGoB9JCuVvRIbYB9IUmXPnhICeIpaO2SJkUeexFUA+cfBLYDhGqCkAgCudckpjT8BINQn+EheIcDVLIVAjjGgTlt0JBECGpaUiRME2NolDaSI1gwIFSBxWbkJqKWUM8NIqxlQ05pSIXoZwEVqM0AEmVZPtgOovw3IrGvnUgInBC5SmwNAHlykULs0u+OLCBEK/RFAG5aLdOYAwCvnG9lFrQCQlWO7xIGgAxnf2nukbtIuAFT1OC4IQwAgnyAdAInb2aKbOQDUjFwhONwDiIZiRypySW2p1BuDToa4ExJsJkKpiwHmTYi1BSBhaCTtAEh5USl0LCFt58IrXQzo9nhLUru0ekF1IdWoBli/QBOqMpw7VupoAnVMF6SBCqVf2B9V4v+wby40bg3Zvu5uK70n29cFbKW5eQp1xla6p2+L9kp79uRrf1b6v2+nqpUBw5dSsnGCcUWPG0ck1/KzMoO51p+VIU/agWplirStfvCUym268BB854zN5HxjLvhuSWNu0V23JfOf9gyueh9sDgdIRyzZ2NojKeQm0PqDpOBD2W6bfYg9P8if3AEc3xFvbjGu3R/xOU6lLT8oX/nF5e+Rw91Pug2A/PH5gnw5HI/TA3T+f/vizEvTa1Ue/wA=);lineShape=1;" vertex="1" parent="1">
                    <mxGeometry x="934.9850237630653" y="358.8273059069244" width="0.1286442407812997" height="14.534850632378285" as="geometry"/>
                </mxCell>
                <mxCell id="43" value="" style="shape=stencil(lZfbbtswDIafxreEJOpAXXfdexRougTLkiJNt/XtS89QY1H1P/TOcfiZ4pma+O5l//C8m4J7uV7OP3d/Do/X/cTfphAOp/3ucrjq08T3E989nS+7H5fz6+lx+f38MEvOT7/Ov+cv/F24SDnNUHBvywtHVf69+L6IHw+nlbgQu068UPHb4j5Rkk7eV8puG9DzFO4AjuTKNsCeUuyAGMlXAOgBSgekTC5tA1Ft7jVkIQdsSIVCb0MRqsBLOZPPHSCFct4GSmx/N6AyMbBBAhUDCPm4DdRM1QCFfACAnjhYAHmpDqk0A8BLCtQ4HAl4qVaKxQIR2VBJBg0FJJ93rtm49isgVIU1QlqJbAEmXWc/gFArEMyR9A1yk1D2FogIKFTZAokhENKgAXkpU46DDaCo61BBCsDsSyRDQWRkQ2qZsAICSqbUan6VTILyOw9eKjgOeShqLQiUS4W4DiWHbJDWez8A7QsoDkJlrFEUh0o8eIlxjY4aMupkWnFD4ByKdG0TcAVErKEMgGANbICKu4Z+L1gg4ub6NaCo0X3XWPW2zwlP0SRTgnM0h9YkPqZchQ0/sU1X0SOBQOjkj70RucJQc7JzVGc30qDrjjE6Jhg5XadSD6hOVHLet0HegPkT4Ehs24w0jZ+KO/K9uCeB4ma+6boFYuyabTfxAHLItXZ1Wz4FONPZea6egeJixVFnUcdnI442JG8LxsFUCxStqai6uJXSShyMArZrtoM7cGxJfhNHzWEoK9d2kg3xL10p/iuuD7fby9PheFwuP+v/7W1HXy03Jb5/Bw==);lineShape=1;" vertex="1" parent="1">
                    <mxGeometry x="933.6761437261371" y="370.8705212392206" width="2.693667001262425" height="4.482836181103639" as="geometry"/>
                </mxCell>
                <mxCell id="44" value="" style="shape=stencil(rVbbbtswDP0avxKUZF343HX/UaDpYixLijTb2r8fPU9ORNunCLA3RTnH4u2Q7MLD2/7pddd5frucT993v4fny74LXzrvh+N+dx4ueurCYxceXk7n3bfz6efxefr9+jQix9OP06/xC+8TT4RcHlmeP6abQDH+vfg64Q/D8QZfIgk3eOfJAUJ25FND0BeS2ybETH3fWpQpgBf6Qrkl9PqJsE0IhfrWpCgUAcFLdbESkpAAHzxTkIZQHEnZJjhH7BuClBq3dQLXmNwQBPigLpQWL9QDizKlYPEFZCFSaevIMRMzSBtxtg+IBzG1ZaH4BPCO3MIBB/BMXmxAe0F4boUgmTIIqCZsgf8XgS37jb8JVrW3RS0q1R7F37HFJ4DXBIvFR1ChWkDR4jOIv5Bn6y+D+I8KSJaAHBg1FmwGAlCxEtxClAxSoCZZ0ZRPfE7mAYEWlRURZyBKrZilxkDN9ZTSPXhPEhf2oBRQvMtfpugW8YR4m+FS++oG3vaIXFX6X/BaELklFK59cp0gdTbOk6ZAlWlJZDPLdHCAFOjwkzYHfaqdYL0mVMitMIO2AkBImuW2c2neExo1ibwpIzhqitjRMff6Lby0BqlOQWcRbRTR4AMIqXg7ixlGVIJdWPCk1MbpksWjUZ+szLj21nV8XtqDJp8sFi6us2EdP28a13wFIAKZl6srHm1bN5vGXHFwt7l2zevSCwN655L8OV4P1438ZTgcpoX+9n+7wevVtP2Hxz8=);lineShape=1;" vertex="1" parent="1">
                    <mxGeometry x="935.7958485346176" y="372.3069419788127" width="1.1540978876940822" height="2.897857085730596" as="geometry"/>
                </mxCell>
                <mxCell id="45" value="" style="shape=stencil(lVfbctpADP0av2p2tVc9p+l/ZCakMKWQIaRt/j5yqQ2rNQfyZszRWpcj6ewQHt7WT6+rgd3b8bD/ufqzeT6uh/BtYN7s1qvD5qhPQ3gcwsPL/rD6cdi/755Pv1+fRuT49Gv/ezzh78nOO0fOjWbsPv6/opj/vfh+MthudhcGIiShxQdKHhr42hhwIReBQbUehUyCDDKl0hjEShyAQaTCjUF25FHQTKGNoXgqIOgqlNovVCZOwCBRbYMWB4OujpK0BppWEEMJXeHOtV+0yIlKm1etJcprylRTa5CIwRdi6dJUKYMglAkmTUUoA5c4kWtdyvqFct3AM8XYGCQtDV83cMQtNSKTB5V21qGoVAIhK95bfAARz0ye8Uok6H8Ui08gQXpasfgAWsFTihbvwflz9i7xID9MJVg8C6AQMXfxgkbT6dbls8LzrT9aL9ADYRokl3wA9QpdvTRjEO+9xUcQL9u5onjUMGynteIRn3W99HjIzxotPsH+6s9n2F82Px7Wt9uXio8V4sXi0ZzWbur6K8PzzUQc+xHglY1df6EZ7Un6fgT554V+R0sjkOvijeB85X+HL4CfX8X7ZANIEQ5crjaCXKaaL3skVn6UMu3m5b2qGWxdqpkKqHESS1JVMAJIl1VCtVvsLKqW1UQ3JlR+JOBS6Va9aoOMJJS2bduYghdBnff0nCW8WUet0Y5qVXUBCc15k87UEKogS9IvpwollypTM41U8aDpeBZYs7q+IZY1S+0+u6XfVQW2lb5xQUhWBPoppmvq3bU5cpDbig9s8Gj+Kr44g0dKXHlsBIhOcHR+oRwtHpW4LpyP8f35yB+xC+dGvGIH5I18ytRUd9ZLJj7ex4cv30jvMNCH8wX4ZbPdnu7Pl//bC7O+Ol22w+Mn);lineShape=1;" vertex="1" parent="1">
                    <mxGeometry x="933.105724612868" y="352.54366027704157" width="3.0552165066567545" height="4.373700380367867" as="geometry"/>
                </mxCell>
                <mxCell id="46" value="" style="shape=stencil(lZbdUttADIWfxrdnpNX+XlN4D2YIjYc0YUKg5e3R1mOIlkSd3vnv88pHR8c7yc3L9v55MwV6OR0PT5vf88NpO8mPKYR5v90c55MeTXI7yc3j4bj5eTy87h+W8+f7/mQ/+nV462/4s3CNUEKnAr0vV2JCan+v3C3Abt6fAxmlGCAJWnWAhsoGyIKaXSCJAUoEeyUltGyAqis4QG2IFmiMFh1AVbIltYLE14FCyFYlJgLRdSITJNolGtiRKRGq7ZzqQE4jooBtI2oFO4BUkAVK84EMsrrmBhIHKGMjUkV1VIphXCGqW5zO6W1pFggITklaQK4G0CKzs0KuaMkCGSE53lARrZlU6OB8dG+TXUFbGfyBoGFG6V8zykPjCLFcB87c/OkNWoPh8hI6MBbQofJa3UdysGtbX3FZJh36YUg1GJySeqzYkr6i53KrBeXbjFYnBjQa6wBofHozmhCHoVZZHTN1QP4HkDima09Dx0whrm7+BBKyE0yc1rQ+i43ofHRBtW4tDHHaEMYwzrym7cXn1ar2AxKvKXLteWuLSODg1ZNsYgRfUc0TWz831xQcR4GYkZweBxmBBHEmRz0x/Bm0AY6garpBofHfpgdfO47HebdbNizn98cdil5adjdy+wE=);lineShape=1;" vertex="1" parent="1">
                    <mxGeometry x="933.7419862287388" y="348.28836694858666" width="0.28575258411778615" height="0.2866291774549526" as="geometry"/>
                </mxCell>
                <mxCell id="47" value="" style="shape=stencil(lVfLctswDPwaXTEkQRLkOU3/IzNxak9dO+M4ffx9oWroiKC8md5kGSsSWCweEz+87Z9ed1Nwb9fL+fvu1+H5up/4yxTC4bTfXQ5XfZr4ceKHl/Nl9+1yfj89L79fn2bL+enH+ef8hd8LTojLDAruz/IikA//XnxdzI+H08q8kHOduS/E8b69dxRyB2AmyQDgqXAHiJG8BwCmKB0gJcoFABL51AGytDfbAGkuNoAUCiBIwVPoo1SEkgOARNKfUJkCuBI7in2UqjoNeIiecrAnZOBDcoMPlXK9D8h6pd6HwsRyHyB6pZ44SS27tnOPyfcn5EQMfFAXa+90UqdBLtVIKVsAkoNG3fCQAglIvpopJgtAPFShWAcAEFAtFLMFFEBcrS3VVk4z4EEBUi2gwCLgbNlIscXh3hGlL0sqageSSQGWCBUEwzCJuVImh5iTVrdWAJTfSrWwBUTEXNq4EqMoRRIZfEAnxPb3OkqIam5BXPOAwsqUDECZRpLjwQdNJnSl2DS/AgTEQ2oSXgsCE+edBWTEg9iO8pmoC/lBo4I16ganUc9SQI4WAH2oVA0PkQIQ9QxIFgDDWlvtXeUS1MMmAPhQCqW+MGlnT0DTIq2o3FqQAgBx2nBMzyoZ1kqNSe1zae7sqFGrpk2jLrDy8U2Qt5Hso9xuTxt65WyPqAig3zPjSYQtRUcsOzzomIgA3rZ2HbEy8LpQ6V1QpiNiutX2daUEZSk1VldTKPr+UPZYp1ZQJx3VPlN9gVoYGmiA86Gz7vqWVXfMWYw5mm+dDb6DM4+n5I15BF9Xz4ox9yAyw1DoWqnc1pdVC9bKIF8Hl5Ghgzu4HWW7fDm4uWSqfSA9vIzYuc7DXv+fm+Cn5vrwsXS+HI7HZWdd/2+XVH21LLj8+Bc=);lineShape=1;" vertex="1" parent="1">
                    <mxGeometry x="890.7327683204885" y="353.1930197038647" width="1.877025406671981" height="3.1570133352532923" as="geometry"/>
                </mxCell>
                <mxCell id="48" value="" style="shape=stencil(lZbdUttADIWfxrdnpNX+XlN4D2YIjYc0YUKg5e3R1mOIlkSd3vnv88pHR8c7yc3L9v55MwV6OR0PT5vf88NpO8mPKYR5v90c55MeTXI7yc3j4bj5eTy87h+W8+f7/mQ/+nV462/4s3CNUEKnAr0vV2JCan+v3C3Abt6fAxmlGCAJWnWAhsoGyIKaXSCJAUoEeyUltGyAqis4QG2IFmiMFh1AVbIltYLE14FCyFYlJgLRdSITJNolGtiRKRGq7ZzqQE4jooBtI2oFO4BUkAVK84EMsrrmBhIHKGMjUkV1VIphXCGqW5zO6W1pFggITklaQK4G0CKzs0KuaMkCGSE53lARrZlU6OB8dG+TXUFbGfyBoGFG6V8zykPjCLFcB87c/OkNWoPh8hI6MBbQofJa3UdysGtbX3FZJh36YUg1GJySeqzYkr6i53KrBeXbjFYnBjQa6wBofHozmhCHoVZZHTN1QP4HkDima09Dx0whrm7+BBKyE0yc1rQ+i43ofHRBtW4tDHHaEMYwzrym7cXn1ar2AxKvKXLteWuLSODg1ZNsYgRfUc0TWz831xQcR4GYkZweBxmBBHEmRz0x/Bm0AY6garpBofHfpgdfO47HebdbNizn98cdil5adjdy+wE=);lineShape=1;" vertex="1" parent="1">
                    <mxGeometry x="890.9347019602728" y="349.07381658348544" width="0.28575258411778615" height="0.2866291774549526" as="geometry"/>
                </mxCell>
                <mxCell id="49" value="pehle to size hit karne ka try karte he" style="text;html=1;align=center;verticalAlign=middle;resizable=0;points=[];autosize=1;strokeColor=none;fillColor=none;" vertex="1" parent="1">
                    <mxGeometry x="280" y="446.82" width="220" height="30" as="geometry"/>
                </mxCell>
                <mxCell id="50" value="favorable elements (jo k se kam ho is gucche me) : 1&lt;br&gt;unfavourable(jo k se zyada ho) : 0" style="text;html=1;align=center;verticalAlign=middle;resizable=0;points=[];autosize=1;strokeColor=none;fillColor=none;" vertex="1" parent="1">
                    <mxGeometry x="240" y="495" width="300" height="40" as="geometry"/>
                </mxCell>
                <mxCell id="51" value="&lt;font style=&quot;font-size: 9px;&quot;&gt;favorable elements (jo k se kam ho is gucche me) : 1&lt;br&gt;unfavourable(jo k se zyada ho) : 1&lt;/font&gt;" style="text;html=1;align=center;verticalAlign=middle;resizable=0;points=[];autosize=1;strokeColor=none;fillColor=none;" vertex="1" parent="1">
                    <mxGeometry x="550" y="490" width="230" height="40" as="geometry"/>
                </mxCell>
                <mxCell id="52" value="&lt;font style=&quot;font-size: 9px;&quot;&gt;favorable elements (jo k se kam ho is gucche me) : 1&lt;br&gt;unfavourable(jo k se zyada ho) : 2&lt;/font&gt;" style="text;html=1;align=center;verticalAlign=middle;resizable=0;points=[];autosize=1;strokeColor=none;fillColor=none;" vertex="1" parent="1">
                    <mxGeometry x="790" y="490" width="230" height="40" as="geometry"/>
                </mxCell>
                <mxCell id="53" value="&lt;font style=&quot;font-size: 9px;&quot;&gt;favorable elements (jo k se kam ho is gucche me) : 1&lt;br&gt;unfavourable(jo k se zyada ho) : 2&lt;/font&gt;" style="text;html=1;align=center;verticalAlign=middle;resizable=0;points=[];autosize=1;strokeColor=none;fillColor=none;" vertex="1" parent="1">
                    <mxGeometry x="1070" y="490" width="230" height="40" as="geometry"/>
                </mxCell>
                <mxCell id="54" value="" style="shape=stencil(rVjJjhpBDP2avlrl2us8mfzHSMMEFAIjhmx/H1dQi7YLXgcpt6bbj/LyvNUUnj62L++bybuP8+n4dfNz93reTuHT5P3usN2cdmd5msLzFJ7ejqfNl9Px++H18vv9pUv2p2/HH/0ffl1w3KiljvLu9+WNo+b+vvh8kd/vDlo+ByWfyfn78j5SKEqemXK9DwiOnD6AE+UMAJlKUwAxIQATYiTHGpAolvuA5KlGBRAlEwBkT1GfEBKlcB9QPPmqANERA6Oro5o1IJIHKtVCUcc5FhjoxlQ0IDF5BEg2cClSBJFuhao2OhUqwEutEWu3ZiZOEGDJGqkCLwnARDrX+c09QNOAEsiBwHWAzodSKIEE6gBN7ypkYZChTjLIaUSGfr2BkOgHYMUtRMPsaJSiBUQUuzr/3wKACkfLxMECKgpFuKFSQ+xwVDT/Fn64l3XND0cAPtU0p8zSCBDtGigPRmQE8JSGEwKqHFLMBr8yVok1YyWWKBA12gougIy8VOYcWwBiA4BGZQQguvrZif8KSBT8IypJ9UsPGd29/pBb29DaVwInn20cMDVEgfIQ+SRH63AConeLtm2tJJAUrqwjvZqj4sWB36gMSDX1g9Ur/OYyuAmUMkm5USVULAUQhhNQOf4fANwiRsBKF+oAHbmVRtcBpvfiVtoBuqWsNOurAstxAMWBbbPuAwcqTDxPnouRBsbB2UlRhiZEPvFJ1F6SsSyjWVTYak5gWPqypIsZXutM+NuAQFHXShleE8gH0bjqOMh4jEbLOABkAK+AGvKZNTVkxK/AS33t0WyVJQLlNNf582JNQWy97kmLRagiL9mGIv+AbHa2Y+FNbpj48KIoPG1GPINEkEE+GnEUYBli2IjDlY+CFUd7Q7YpI7ajrKdSrDhaodkm2Ip8GI1F6vR92aqPrOWhQmBnCpOr1QfFql8Z5OkBKjx+JbEiLw/X+4+33X5/uT5Zfrf3JfLqctcSnv8A);lineShape=1;fontSize=9;" vertex="1" parent="1">
                    <mxGeometry x="1183.786057984169" y="352.69021856041593" width="1.8013015235532843" height="19.73670295165874" as="geometry"/>
                </mxCell>
                <mxCell id="55" value="" style="shape=stencil(lZfRbtswDEW/xq+EJEqi+Nx1/1Gg6RIsS4o03da/Lz3DiUUnd+ibE/NYFHlFUgM/vG2fXjdDCm/n0/Hn5s/u+bwd+NuQ0u6w3Zx2Z3sa+HHgh5fjafPjdHw/PE+/X59Gy/Hp1/H3+IW/E1ep8Ail8DH9ESmkf398n8z3u8PCPFbi1tsHynofGBfIPaAk4T7ATFE7wD7BYIUc/Ar2iYqARlw6IEcIlEqpdykrlXofqEw5dECROc43AQkUYgfUQgEB1QOSKOT7QIskfZSkzU7eBoRqD7RMAjatSrHftBbSCAHptacmFpCHGCxMbgkhFrhE6+WqjSIGWD3QgE/2urgVlHIDgPgTNzqJ4lq9XBdxuE0UinW1BPIpr1JnAkepY0riw6RAfppIigcSKDQG1F7gFriMgeY2XWcF39tDdoDptcAosXggg0M6vl4BEe3BPF4BAclVqLEHEsq0qTl5QJBLl0q3CCujKOkcxEXiIi4DKh5QJG+l6tTaqKIT1FZVwI45cuniwAKAta+u5G27QnkoVNYAFl9elQ24aZ5P8AKIaIWvAmNL6aNkPQMVVyk+rC1QBVGytuhOnGS4Qs1UenlXoQS0ZH259fW+KDwPJZD2eSiRFE0byYsvZwoA4Evnv8wzdR6Jbo9Y1lH6sCbcs2zGi32mU4Ijls14LtOR5xZzEwh+dmAS8P1Aye0YFrHVsJRgylZDQ6II+kKYBXOdiAt0pqgzDyAy0bdmCxXwPVITZ55QZufjdDUPwHf2kzOeK6wERW8OtlrmBr/wHZqrdwYNg1+8uPzX3B6ud6SX3X4/XbGW7/2dyv6a7mP8+Ak=);lineShape=1;fontSize=9;" vertex="1" parent="1">
                    <mxGeometry x="1181.9556716421685" y="367.6803004637213" width="5.066703196422341" height="7.591914621715414" as="geometry"/>
                </mxCell>
                <mxCell id="56" value="" style="shape=stencil(rVbLbtswEPwaXRckl4/lOU3+I0CcWqhjB47TJn+fVRTK5iqeokBvsjRD72N2lgPfvGzvnzdDcC+n4+HX5s/4cNoO/GMIYdxvN8fxpE8D3w5883g4bn4eD6/7h/n38/2EnJ6eDr+nE95mXhUqcWIF9/71hnz5fHE343fj/gIvkWLo8CGSi9cJuRKXjsBCOQCCo+Q6QhRKfJ2QHElPSJUEhMSVXO0IhcmBpH2l2iddM3kBBGlFXAiFBBESpT6kqn1IgBAoZksQkIMe5y2+ZlBVklVA0YGikjc6Egqopit8pgzwjnzf5BqpYDz3+EAFdYCCicdRhfmGvj6iQkeytpoTrQ/AL6ct+ELFQ0HkYgloClRypdiIvkR4TdTsbMqoRNoDZ3rm4egrIRvRMSXQZCWYLlQdJDQ2QpLsYDIiZEpm9AXrSCM2QqpUQJW85tAr1bulcFekVNn+QwajzFRllQKKqH29qFEASnLEbJsQgWGvZcEU4fnF9My3FfFf8Jow9wXKhTKYNQ7NzJeNE+EwR02wd98YYAsStwouW1NXFLIXbVG/D1TqCRRVnDU8dTQwCLJSRYABCbdRXwIiB0Qhqa2vhldZofilfT7j0dCona/OR/GrJo0BazzAHc/Gc87XAw3pTJkOB/IonpVzcbtYfY9X1+njj9i33GosMwVAmEynL2iBC/lfb5p/x+vD+Vr7OO5286348ru9Buur+QrNtx8=);lineShape=1;fontSize=9;" vertex="1" parent="1">
                    <mxGeometry x="1187.5218082232564" y="369.1005422366118" width="2.156239955244047" height="3.6259500514929712" as="geometry"/>
                </mxCell>
                <mxCell id="57" value="" style="shape=stencil(lVjZctswDPwav2JAgudzmv5HZuLUnrpxxnGvvy9UDxURlLb1my1jTWBxLbWTh/fD09t+5/n9ejl/3f88Pl8PO/m08/74ethfjlf9tJPHnTy8nC/7L5fz99fn2/e3p8ly+vTt/GP6h183XKHgJ5Dn37cHTJL/Pvh8Mz8dXxfmrlAtnb2QuG17nym5zj6TT9v24in39o7JVQAoVEIPCMTghBAppB6gfwFCiI5ST5HXEyIAJKp9DL5SBaQmR653SRKxAECg2gOCb3+xDshU+xhCIQa0ZqbIHSAKVeBS9uRzD6jkQNBZWogNkISKhwCJPUBjKBAQ+lrNjjKKQSj2tZSVaMRSIN/TmtUlFHQk17tUNPcMAKm1ywyQ1oHrgNJqcwYkSqA0CttqLZq4AADBulQdBUBryZRrDxDoUq2U++Krc5evTyVmYoPQIEBTT0dkCxCQav2ZgwUk4FPNVIoFoCBqouAsoCKaguV1wcM6QtosXR4BRplmdqQJDcvKlIaoE3KJV3gVVH7VjrIpNYgm3WgGUBpxW0H7ofwiYsnbQaMAAU2qmePBJY8AkVK8C6Br1g0uIZaKnX3TEzCOlfUx6IxYqnZpTYnDJ9ShIQTV0lw5C0DEQctwQka0prYElw0EZp8mzrj0Hz2axzEAdopWn0219iiK2q0My4RO4KEhKpz4dwPyoOIq1li6SJMZTPOo2tInBqCDJKDNO6wUXaRIn6gaMXnQTYnEgIoy1xfTJAYQILWfF3LDIZdU6xpAhMU3AYxcx5JJAUb2KQ1I0EzS1ag4gdWqAFNLKiw9KI2k07ivpRjajlnX69UWX5hTuSXwS79GVX6jW5BqZza3ptSiWr+kaD/0pSHclOM6QNqgW1xSBCROsr34OVVMgFZ1wKqN0Ihev/qFtvgXV7kEWFIHrPyGw9g5W90Bar5BmjiYA7bt7OCdbBgXDNUeW5nObcNvmEsy5gFMCrYaiWF9OssMwznk7YWY4Zybxf7CHDijqnYwB2mKtnkZX52pWN5RzeQ2/T7MPRi4d75N+ae5fvh4cfNyPJ1u732Wv9sXPfro9pJIHv8A);lineShape=1;fontSize=9;" vertex="1" parent="1">
                    <mxGeometry x="1222.9180072346926" y="353.7862372667413" width="3.9386714297864867" height="22.96930569739079" as="geometry"/>
                </mxCell>
                <mxCell id="58" value="" style="shape=stencil(lZZLctswDIZPoy0GBAQ+1ml6j8zEqT117YzjtM3tQ1WVK0Lh38mOpvGJeAOD3r3sH553g/DL9XL+vvt1eLzuB/0yiBxO+93lcK2nQe8HvXs6X3bfLufX0+P8+/lhkpxOP84/py/8nrnAlGWihN/mGyFNfy6+zvLHw2klL4FKaORDoch9QI0sNUC9Ee0Do5FaA9SbHPuAJeKxAerNaH0gBYqtzYkplj5QMsXWhqJkQKVSyHILjGTghcBMzC1hlJBOhYoDqh+AXysgTqdMIUOrxb1QKAgA4qLxCkgjAIxCC6z88DFx8/vqiQxiXYQ4e0CREbzxa6YRxZopmA+EAiBvIxcpoMjxEqdVNv2twq4Nzku6lHnPS8EBQgXlhlI0D4ygb9RQ++yTpc57yZQ3QEQ25M0LSoJUuiXCyq2oM00l54Daq5CXKuAKImIbat9oW1nNpYwinZfmu8rWjGxIJJsaNRy4pB4oqB5G4s0LBZeo2UYl1DYCiXmjE4rDZ4Goy8S5TQijCFQaq9fbwEWByaeRrM0lY9hmJPoXtA5eAIRa0+3QEiUFvZV9KkUSYHJtSm7qLk7uiLv5VmsNVAL7yaDLRUc8tVuJwK8HMrfE4KXHD536HFp5/Bhk2FbMOxKPwOh1r+LA1OTThpcG8HGpEJs3Fe4txNF50oDyn103/y9fD/9226fD8Tivxuv//S5cr+Y9Wu/fAQ==);lineShape=1;fontSize=9;" vertex="1" parent="1">
                    <mxGeometry x="1223.272017848195" y="373.8901005692104" width="3.341155803108926" height="4.414597908977908" as="geometry"/>
                </mxCell>
                <mxCell id="59" value="" style="shape=stencil(lZbbbtswDIafxreEREqUeN1171Gg6RIsS4o03eHtJ8+wF9HxX/TOcT7SPPykNMjD2/7pdTdweLtezt93vw7P1/0gXwbmw2m/uxyu7WmQx0EeXs6X3bfL+f30PP1+fRrJ8enH+efo4fdkZ5WqjVYc/kxvCgn/e/F14o+H0w1f2t/a8WwUbNsgV7LeIBUKedsgVdLaGTQXXLcNJFFMfQpMVbYNIpPGzsAKpQgMIqXcG1TKIGmjUnreKCmoKhX1vIEMMimveOBf5mhv+IwqRFV9viVs84FUfEEz6HGg4OJXYug/hp5PVED9wyp+oQQkxMROEEwC/KdV/JE0bfO6ij/CKWuCF88n4D+2AlWfQMCK9opjqKA2M8V8CyIoUZRVSJky6EH7QnVDo2QF5mCuqkvdtqokq7FkUKW6GnujCtqmJH3bYmhKB7pOxMl/oIAPLKq84QPgA5nrQYFdbjLKvgUK+eA6kIkhn12+Mvdwi5fP8G3RpT4gbZIAGpJ2nPUZZ4Gbrp1ObpQTw1HW7GU9dh3MQdU5gMUA7sZaqPZ82y1I1Da7m/lle98/y4L3vyyb+zz7puEZaHuE1ftHfCaLjkdna5O8VFefgOKv/rCM8wfv8+a3BH/EW1+fhFd1WE1ZpogSNtI+IIWC++wV8GO+Pfy/b74cjsfpunr7v7+ftlfT3VYe/wI=);lineShape=1;fontSize=9;" vertex="1" parent="1">
                    <mxGeometry x="1227.100572686512" y="373.87922165846953" width="2.7797275951605926" height="4.220015692692017" as="geometry"/>
                </mxCell>
                <mxCell id="60" value="" style="shape=stencil(lVjZctswDPwavWJ4E3hO0//ITJzaUzfOOO7194WqEW2C8mbypjhYEccCWGqKD+/7p7fdFNz75Xz6vvt9eL7sp/hlCuHwut+dDxd9muLjFB9eTufdt/Pp5+vz8vfb02w5P/04/Zrf8GfBJXJ5BgX3d/nBUXb/f/i6mB8PrzfmQtV15okk3jf3gSR19j6SYwBIFKUHCBUBgEKBO0BgChUAmFzvUlRAAACNufQxMzFwKXhKfU5zS9s2IFpAERLgUsgkvgNUppoAQD3us8SFfL4PiIFK7QDiSRCgkutdkkwZAJJfidYAlSKIIRVy0QIq4FJ2JDycAFzKhZI5QdkFKl0CZZOlRAXEoHWNxqWwEn4TULVMfZZYueTvAzhYtmqluYCO1qANNRxFcIIm0dRBAR4DDJcU4AC9hVci3ALAmFGADCcgeotQkiFolCUhHlwq4ATv1GVnEQIGkx5hZiV7XAgZ8uqpYEDwFgC5wVRCDwi4cpWkDADQo3NHugGASl3sBppjQCdoC8chS6BHdW5t1AEDuFiAQ3XQEwb2FRxDHFoOjQ0F8NijiHzVrqC55VDQTD4MANzUdexRJDVkI+iAsqSTcYgBraC54waXYD+I3Sha6YBjqAMgoywNC0IBFVX6swBua7kBmBIIWqUFD1IggaBrUwo3WxFJspJWPXWzd5GcyUq+vuPmSQU6LvthUTdVty02mq5tOvQ60LcFEA9B8MqWbUBche1N1BmkSUWczWvAgDxsaj0BycQ23ZuuFDjJVBvn/oSKtYCvlPsVpNoYtZzPK5ub+pb1ynLvBmFuNFoZRFe9o4SeTJrohK4cOnv7LHks19lqB70EJdQP5HqyFrgS3Spq2+vhbaMV6GqO2n+QMXjiOcsgt27Te84UY44WoaNk354AF5ydvrpAEHWsUviAy1StOVqAA83wPAmW93gfR3sNVt+hefXGPAJnPvmV4ENzfbh+kHg5HI/L94zb/9sPGPrT8vEjPv4D);lineShape=1;fontSize=9;" vertex="1" parent="1">
                    <mxGeometry x="1181.291442158706" y="342.8551504148417" width="2.615785455661297" height="5.245166592518931" as="geometry"/>
                </mxCell>
                <mxCell id="61" value="" style="shape=stencil(jVbLctswDPwaXXdIgi+c3fQ/MhM71tS1M47bJn8fKIpcg5Lg3GgZSy6AXZAdbV73jy/bLrjXy/n0a/uvf7rsO/rRhdAf99tzf5FVRw8dbXan8/b5fPpzfBp/vzwOkcPq9+nvsMPbiKsBKQ2o4N7HL7ki+c8vP0fAoT/eAEJFzArAhFoNAMEHDagotA7wBaEogHcOzhkIP1G+HlGQ8jogI+qk2SMXIwdkUvFSNo7r8Q4xqvgSENiK9043waFaJULWPYiMYvCP4CbeIaT1eEbW/IkQjB77hKB7LFskI2HJwPsZwOpARuYZJUMT5EHc5uyNmlJE8W1Rs+EEyqBZ17KhOkpgTUlk8eWNZQBNKrjRXTHKSuKTxmveNMKgjDpzjmU1RtCUmKeslgEEak4Q+xtaqrMUaOK4nDOK1mrNk7ZWvMZ6upRk7n8dPdcuR7PLbpoMU3ySCli6a4UdZWAafApYzy6RVTCcsxhv1X92I9jDV8pddLw349mh6AZLfw0TcETQvqzIVnxpBeQjqkWotraUeW8p6OY6uqZgz5YlRJ3m0zdJRbm0rCwkbV0m0V25U1dNKYmT7zROnyBOsIb8XBlZhotBaZCe9s6dx8g3Xi+y+P/22fWHw/h0uv2/fSvJp/GdRQ8f);lineShape=1;fontSize=9;" vertex="1" parent="1">
                    <mxGeometry x="1180.7554271857862" y="337.6642924764359" width="0.4342312797108411" height="0.2228881437484196" as="geometry"/>
                </mxCell>
                <mxCell id="62" value="" style="shape=stencil(lVjZctswDPwavWJIgOdzmv5HZuLUnrpxxnGvvy9UDx0TlNfRmyzvkiCwOKhJHt63T2+bid376Xj4vvm9ez5tJ/kyMe9et5vj7qRPkzxO8vByOG6+HQ8/X5/Pv9+eZuT89OPwa17hz5lXEqUys9j9Pb9xVPj/i69n/H73eo0vxK7DR/LpNr46StLh/eXNMoGJDUF3CIAgVHuL2JPLgBAp1p5QSBwg5PZ3I0hqRi4TCqV+hxAooR0qJd97VciDM3jnyPU2Jd8ieWuL0vs1VcroEJVCT8iZnIen5tgRiuDIpRanCyFTRWJiyv0O1VONUK2+V7cG34Ediq7XmzQHHwQiBxsHdQNKoBSoGEKlCHaISkiWUAAh6BHZpNxFLYsMiZSr3aKCUHO2kZvVAkLtS4vTlZsSiJwbLNIqAPHSn7kGeAJ1SLT4BMLmmvSv8ALX5wGPkse13S94aVpfdij5avERCNtTKRYfAJ5tQbqDF+JV9kiT8CfPG4jLGn8GCtniUbyCLXZ39BBa1/uk3sR2hDt6liHBIrSfSdKAB+1Am0UY8CCBHdWhkDLUcxjsQSXIkR/yN+N8dBYfoD3j+n6V/dL65y3/DPpH+hn9r/kF4jXGV/Gr9KP5COwZ9SlwnFiL98P4od2/gi6mLSYaxWWoCG1ixZh06f7LKRzs4DhPMKBmaSe2JhU44Givd8meoYCoZR5kl1uhXybUluVXbkV5VnSaMMLDiaAjlM1837R4a0jzfaR1qoMTf1iYG9EZtJSEvjllrCUllJ4wz75olI12DNTp+g4h9gQd4BlEem4vfRxUjnAc1/V6gl5CBEhDwxT7Q+s1B5WYoj7pI61VisEOKg3XE/SqFkCK6mUz2Mm0qWuZIHb2jXAKKWxvp76J8RbeD7dfdGK2Y47ObdieKAaPqrbii7WHgbDVP2bsdfi80u4mH3gHCphWC9N28EWiDCXVtbvIMj5aQaj9aP244B8sOLb2o5xR/BAvdG9f/fXkLl4fPj7VvOz2+/OXnuv/7acdfXX+LCSP/wA=);lineShape=1;fontSize=9;" vertex="1" parent="1">
                    <mxGeometry x="1221.7500546729375" y="341.5621004809117" width="2.548923537776819" height="5.9223151538872205" as="geometry"/>
                </mxCell>
                <mxCell id="63" value="" style="shape=stencil(fVZdc9wgDPw1ftUAAgTPafo/MpNLz9PrXeZy/fr3FXVwLOLbNxtWILS7gokf3o5Pr4cpuLfb9fL98Ht+vh0n/jKFMJ+Ph+t806+JHyd+eLlcD9+ul5/n5+X/9akh29ePy6+2wp8lrlAOLSi4v8tAciTl/8jXBX+azxs8k3MGHwPVeB/vyIvBM5Mwwkc2+BDJVZSPZIP3iRxYv5JUgxdK4T7cC1Vv8yEGy+tywebjesH2089URjwqf0wkNp9ICZQnBSrF1seTA3wlGQXha6dkP0Cno61QoQqOnAp5G8CFYgIBTCXZMwvURJu2O+gS7zTus6AJ2Kq2JMEOesSBtlYGENCKaH3TCi0gQGkajKlGAzyoDizRTSqgqqvOVhZUiuAEbjR+kzpQ6uqTVUdqJeC01YcdX6kAFX3YfM2/d4L9dLSN2EbkoKxbm3ID3iNjhrFRaKcEkmtt1mpUOzHypettc4MH+Wc/NsZKHuQjypc1mQ8UAF/Fd7lsCBag6KKEWoZDgr6vibLdgSMVcIaqRxwaRSJGInKfVJ0yMdpi7Qs9IKsNUIA2L8ubCDEQapHxxiy5j+wzp0KwZ9A9PWAuf7rzq/Qk790Jw6W5Kdx7hH58PDFe5tNpeaFs58cniQ4tzxl+/Ac=);lineShape=1;fontSize=9;" vertex="1" parent="1">
                    <mxGeometry x="1224.5760331168226" y="337.3563717246626" width="0.27488366896788496" height="0.27463240804211503" as="geometry"/>
                </mxCell>
                <mxCell id="64" value="" style="shape=stencil(lVfbbtswDP0avxKSqBufu+4/CjRdgmVNkaa7/P3oGUosyjlD32yJR+L9UBM/vO+f3nZTcO+X8+n77tfh+bKf+MsUwuF1vzsfLvo18ePEDy+n8+7b+fTx+rz8vz3NkvPXj9PP+YTfC05IygwK7s+y4CjJv4Wvi/jx8LoS95XYdfKRYr0vr9ulP18oeyCv53Mn7yN5vg/gQDV0ALUAacSFSuwBlXy5D4hMuTeZM1VgQxSqvc0xtZVNQEqUcgdI6jZwQ/bkepUyU0wAkK1bi29WbQJKIO5VKhUardu5doAaKcX7AN1m6QFCIQOAKtCrJAxTQzTVeqMF2+Cds37VMxxIJhlCrSsMjNDtEC0AFYSqHAaVkBGiyTncICA3JBH7vuRufthG8FDUegWyWrOpDkaA5BBPQQY3IYBrXlwHAjQyBcTBrz5AQDE3aDYhv/rWh1YAGOrQTFwBIlIpkisWwAiQKAcLCMhLpVXY+gYUadV4sCEho2WIQ6WCq1oGlQTZMFDcXISgHet2GlIjIZVq48wVoKDUKC1M6wJCXlIC4QGAjI4UhooT1MkGHp1LFN3gNyoOkdZcQINKiKk/DShXjVcMgWixJJutFXfjLBssh5qA8rKJgyrpACAV2++VqQuIQ/K23+udGWRrzLYZ67QhoN1H7a098eoRDhQQK7WnDqBDl8NTXzRDHG4zgQeAJguwQedWk946VzKwwScKpuJgwdXGsVenQjZxtgEo4YGscM19N3EH2HAYY1yz/o64IVsHZ0Nn57ArlW570paMayPQdmhbHG/iHqQOj8o4kPwaFXs6mnS0VKIVB44sjepWuoPTaxuQV55BNGPr1uEJ53Mvu/+K68ftEflyOB6XN+h63z46dWl5sPLjXw==);lineShape=1;fontSize=9;" vertex="1" parent="1">
                    <mxGeometry x="1463.8158410302976" y="358.2806426679805" width="3.364796474457902" height="18.923126364160733" as="geometry"/>
                </mxCell>
                <mxCell id="65" value="" style="shape=stencil(lZdNctswDIVPoy2GBAn+rNP0HpmJU2vq2hnHbZPbF6qGtQhZz81OpvGJwAMIQkN4eNs/ve4Gdm+X8+n77vf4fNkP4cvAPB73u/N40achPA7h4eV03n07n34en+ffr0+T5fT04/RresP7zEVKYYLYfcwLjnL+u/B1Nj+Mx4W5F/K+s/eeGACcyUsHMFOVbSAIxX6H4KiUbSCK3SE6isAlEZJ+B/EtqptAEsq9SMlT4W0gawy9S9lTrNtAiZRLBxRH1W0DtVLkDqiJJECgGEAzA3bwzpFzlsgJblF7mWqhiH1KxqdKDtSG/m2qT1cEAepAtAAqJg0x1b6+rzrcJtIq6opTl4jFAgkBWn4rmVC9KhCKTYTgHbiPWnUoKHOy0lWrCZw5BWz5ab2iRCSKzgI+wsx5A8i9VJe0AlDQpaVp4RIsjUocLRCQSpWyt8CdNlCzzcOdNlBXpcGoltQlsUDBXSAYlWpL5aas2QIZNEsNsa4OdcWZ9mUFoBhSu0CWLoGGfy21BcAohs8CRa/Z/gCV0HS7fQd5qn0t5Qh3SEyudylFEqCS3pqlV0kCrNboW7P+d1MHCmgW0B3MLBCoAICDTRwLzPQ0vZh+H1v93gQcpV4kHLKjYAJojXPD3KSAWxK3zJ0xR3KqeS+Ob1PHlu/OmDN8e+rbqYNv15HLDp4RhKquOmOObgMVgo056tTciuT/zEO7uhbOgKYb7YCqyoKD+MmR/K65Plyn/5fxcJg/Hpb/268FXZq/NMLjHw==);lineShape=1;fontSize=9;" vertex="1" parent="1">
                    <mxGeometry x="1462.0424325654335" y="371.04241758700186" width="6.568510010245798" height="7.410675927513274" as="geometry"/>
                </mxCell>
                <mxCell id="66" value="" style="shape=stencil(lVfLbtswEPwaXRfk8rnnNP2PAHFqo64dOE7b/H1WFaiKK2uM3GRqRtzH7NAcwsPb/ul1N7B7u17OP3d/Ds/X/RC+DcyH0353OVz1aQiPQ3h4OV92Py7n99Pz9Pv1aUSOT7/Ov8cv/J14IsRhZLH7mFYCef9v4fuEPx5OC3wVcj3eO3IMCEwh9oRELNuEEqlyR2BPOW8TcibX78BCCeyQMpXa56xViNuEqIQ+6Sht5SYhZKr9DtkRp20CV3KpIxQlgD74FaF62LhEUTq8VKqoSLaoqpRQQI3a2wUelohSsHhBFaLcq8I7FZ4DFbI90w0qSMC17Rf4VBF+nbAHMnW2YdqADBKex2qBRw12bapmfIFT4OyYKd6DIfCUco9XkYMGM8Vg8WiMA4W0woP6xzYfy3jA9yPJKl8G+tGBWeFRv1J7u+wXiD81dS3wBRipuqaJR9rKRr7ZW3yGA2n1INAg2Nbz3kAyuVVAAgJSP5NVAlDQae1YcGB8sA2ooKBzdgs8Osj0+8YgChU48F/D+0CuJxR1LJCwtthYSsYWFHxTQCOk2lR1W3Nqun0P4nxO3Ra1bynOR7G6FiBkVUVPYK0SUF1WkfW+5QX6UCmtiDMhQGOvevT1OxQ4aBIp9kJylIHxKl6KwQeEXzmRKgvoWn0ziME70OTxnMgWDzqgePE2HoSv7dxa5IviETs4Dop0tBE2eAFGPdpU3y/fGnh7Lt3KKXSOgKbHDfqA+F7CpsEM/2p99T/+fbw+/L9QvByOx+k+snxvLyC6NF1ewuMn);lineShape=1;fontSize=9;" vertex="1" parent="1">
                    <mxGeometry x="1467.5587170797507" y="370.3333384071658" width="5.4658928830786655" height="9.222606654006785" as="geometry"/>
                </mxCell>
                <mxCell id="67" value="" style="shape=stencil(nVfLctswDPwaXzEk+MQ5Tf8jM3FqT1074zh9/H2hqqwFUtk4vckyliCAXQDahLuX3cPzdsPu5XI+fd3+2D9edpvwacO8P+625/1FnzbhfhPunk7n7Zfz6fX4OP9+fpgsp6dvp+/TCT9nHDNJnFDsfs1vPDn+8+LzbH/YH619KsY+U8nAPpMP9vxANb0NCExOLECoFgAQyt4AuLQjVgGxUHUGEBIxuFLKxPZKMZL3bwNyJLFXSoEiyGoJlKrNKlMEaa3cX6l44ggAQiFZgJAHaRUlBhtA1UqDoL1z5GxeRcgF4ELagQtAAGmSSkF6QAKlFmVf7QF/i78OCBSGGARwQzRoq4dFHtYrkany4ALVWgUzBgHyWn2vUQVkkNfqepHKP7qs83Wtcg7F4ChkC6hUKoxBpAckFENsglkAAspSoTh4YEBwLXUZPHjEvtCos/QAsiR5SGuFfWNK4uAhI7oqc4YYBGtUBrYyvlI3UCaNIsmVlbZRQCuT2JrEUkCocL51uiUAFE6pMSpOEFtjP1KmRCMANyIsJYqu5CgNiovvSHSogwfk+ziAKdugpwkBYsjaI6wH9RnQHPWtMS6mXARc0jHrraZ1jmbgQQd5tJ1Pj0ho20i9RPUIBoBpGbFc0iOQpr1q2qZVj0AevKNqg2adQIAaGrO9ka5kAgSnvfsjK9+wBuCN0rUu3cy1zaJoG2Ou5gncnXslqztgHvuO7eCSVBobr+ZoCmqlut0Wrwqe26p8o31qubjxPqUfsjjc63G3ZVOLlfvawmJxv8pjLvzHx8s79vpw/VJ62h8O84fW8v/+y0pfzV9l4f43);lineShape=1;fontSize=9;" vertex="1" parent="1">
                    <mxGeometry x="1511.6670548779252" y="360.0542161924511" width="1.5184215016572404" height="17.02108411504014" as="geometry"/>
                </mxCell>
                <mxCell id="68" value="" style="shape=stencil(rVfLbhsxDPyavRISSVHSOU3/I0Cc2qhrB477+vvKXchZ0d4JCvS23uWIDw2H9CQPb9un183E4e18On7d/Nw9n7eTfJqYd4ft5rQ7t6dJHid5eDmeNl9Ox++H5/n369PF8vL07fjjcsKvGZdI7QLi8Ht+ESiFvy8+z+b73WFhHo2SDPaZ2NbtuZCM58dCnNYBcuOAjVjWAXr93AHtCAEpJKMSBoBmKrwOsEwWB0CqxACQC6UyFokp1nVALVRGQBVKCgCV0ljWqqQZAqqOgEQJhdQAeQQYZQwwF1LuPtcAwYVUqEZYpehCaj7BPbQAYvKAiqpkFG48VMDWVsRgHgAvTjtzFkkXwNZGBFNfVngPQuK4ZGSggRrASUDLSlEOcsNWJUEetFNtQW/ooXHTVYmpIEBTjewBhriUb8rKlBE1ClnwOTDuB8m+ShH3Q0n+HhjkEEOg4GJq0odjctLX6pCwbLC76oLrWkgdoJLiHk3BAypqCCMd9X5RhzU2SfUuMopJ7yQRyn8EZKE8jpScSQA5jKmOTWpKGQzeFL1+J4Hc0Njv6ToWuevt/Ukd/QwShjlw040xJNZOr/sEFy/HUfs6cR9A1S8nSFsjcXDmaKwHvwYYHLmhN+/1AvpWsGLuelm74KyZj6fLB+ZuSeKuf2upuq0Nki32HfDdPACRYJ9qIAVDlr0uBorg9NZa6syROmgfjovTwSz7x335Q/P28L6av+z2+3mzX373q3x7Nf8NkMc/);lineShape=1;fontSize=9;" vertex="1" parent="1">
                    <mxGeometry x="1507.7656899644157" y="371.7468201487337" width="4.771848429389558" height="4.279970640966474" as="geometry"/>
                </mxCell>
                <mxCell id="69" value="" style="shape=stencil(lVbLctswDPwaXTEEwOc5Tf8jM3FqT10747ht8veFRkNbpKWtfaOoXZIAdkEO+vSxfXnfDOI+zqfjz83f3et5O+i3QWR32G5Ou7ONBn0e9OnteNr8OB1/H16n7/eXETmOfh3/jCt8TrxSqMSRJe5rmvF14vuE3+8OM3xO5H2DF6US1gnJ0/hvRtBCDHaIiUJpT5Qp+HVCsBC4IdgMZ0BgSm0MyZGXdYJGSqkhlEgOxKCBfBtDSaTgSCr1ABeCBa3rBEmUc0so5B0gCKnvCQUQONb15gQQAzuKoSdEkNZA6SbmDLIqxNInNZV1vOuVZ1UL/Ag+QKXenkcpg/PcxiuUQX4WEipQdgslM6k/JgquUr9XdkICCAvCVmLg5gXreFIQw4I5A0VQZiOw9rpALUy1yngmVEZZKtW7Mycw2MGarsSekJDXcm0nlcDOkUN2Fgo3dkZbJJKbfoFiuJT1ziSZuP0jVbiEd2eZH8VzqumohFhIAMH8rK0sQqo30ZqOXHfXJphSzyRtDJpgx7CbrbQdwxyOmnxk0tZt1sLAtRNNRd0GlNH6vjcnUwaiiKm/y5kcEinXG6DiXW0fy3jzfo9nkNDsKIcOj1yWQ+8yB7tdLjUdV3wA57HmmVyXHwb1Mk91ojaFIHym0mpaYL1mXecqIOSBxfcm2OD/71MbXB+3b7v9fnobz//3j2Gbmh7S+vwP);lineShape=1;fontSize=9;" vertex="1" parent="1">
                    <mxGeometry x="1514.1328326457028" y="372.4166820868975" width="1.1137941866976548" height="4.926695469724878" as="geometry"/>
                </mxCell>
                <mxCell id="70" value="" style="shape=stencil(lVfLbhsxDPyavRIS9SLPafofAeLURl07cJy2+ftwu1BtceMJclvvciyRMxpSU7p72T48byYOL+fT8efmz+7xvJ3St4l5d9huTruzPU3pfkp3T8fT5sfp+Hp4XH4/P8yR89Ov4+/5H/4uuJio1BnF4W15kyjHfy++L/H73eE6PlMJQzxHKgwAjVIcFxCSdhvAgXIbACVQKgBQKI6AyiT1NiDF/n8d0DJJBgClxgNArAwgh6yk4woaYVmLUh1z0EwVJC1KcdySBriCfRYZc1ASBGDS5AElAUChsAJUIA2tpM3nEEDSKlSyBzQBANuxeh4aYDoG28Gob6uDoCRMG2PWmkgRQHrZr6hWRISdILdCoRYgEdmprxIjQKJUPQAdOasiqwdELFe/pUIVJC3ixWRVEpCDNIrqeUDaMEBwPDBVDHDWZ2X4JIe6OqMV2IZ95pEHq5siABOvz6gCQPZamgGI6eq9crYNtCUjbnWoC5K3+gYxeyVSq9XEuQBTBn5vAFlJo2BAHL1ydmO0pdZrciXvjKr0VUBZMX1lVR/3IDP81ZELqPGqB0jtbexWp3ZtsZlagPpseIgj1TVjw/dmXMx4wBEtlMZ469xIGdFbsb1BnrFqDokqyDdQHDljOGaE3vEv4QFNVn3u+q+Inv3HbPWe0cMDbCLZzxfmTUifvRCX8ABmhVVLw1oWP4qEPvLd6OLdQC7xBXX96KevSAHIILJnymSD9pN8u2ToP18eyj+Nt4fLDeBpt98vF4jr7/7GYK+W20a6fwc=);lineShape=1;fontSize=9;" vertex="1" parent="1">
                    <mxGeometry x="1465.2064339733133" y="351.16574495564123" width="2.9557677653272267" height="5.630386640706233" as="geometry"/>
                </mxCell>
                <mxCell id="71" value="" style="shape=stencil(lZbdUttADIWfxrdnpNX+XlN4D2YIjYc0YUKg5e3R1mOIlkSd3vnv88pHR8c7yc3L9v55MwV6OR0PT5vf88NpO8mPKYR5v90c55MeTXI7yc3j4bj5eTy87h+W8+f7/mQ/+nV462/4s3CNUEKnAr0vV2JCan+v3C3Abt6fAxmlGCAJWnWAhsoGyIKaXSCJAUoEeyUltGyAqis4QG2IFmiMFh1AVbIltYLE14FCyFYlJgLRdSITJNolGtiRKRGq7ZzqQE4jooBtI2oFO4BUkAVK84EMsrrmBhIHKGMjUkV1VIphXCGqW5zO6W1pFggITklaQK4G0CKzs0KuaMkCGSE53lARrZlU6OB8dG+TXUFbGfyBoGFG6V8zykPjCLFcB87c/OkNWoPh8hI6MBbQofJa3UdysGtbX3FZJh36YUg1GJySeqzYkr6i53KrBeXbjFYnBjQa6wBofHozmhCHoVZZHTN1QP4HkDima09Dx0whrm7+BBKyE0yc1rQ+i43ofHRBtW4tDHHaEMYwzrym7cXn1ar2AxKvKXLteWuLSODg1ZNsYgRfUc0TWz831xQcR4GYkZweBxmBBHEmRz0x/Bm0AY6garpBofHfpgdfO47HebdbNizn98cdil5adjdy+wE=);lineShape=1;fontSize=9;" vertex="1" parent="1">
                    <mxGeometry x="1464.702508655172" y="347.1143163302597" width="0.7737300739194884" height="0.7761036189554383" as="geometry"/>
                </mxCell>
                <mxCell id="72" value="" style="shape=stencil(lVjbcloxDPwaXjWyZVv2c5r+R2ZCClMaMoTe/r6i1HCsA3vSN0J2fVmtLmYlD++bp7f1KvL78bD/uv65fT5uVvJpFeP2dbM+bI/2aSWPK3l42R/WXw7776/P57/fnk7I06dv+x+nFX6deYGZmE+0yL//fUWt/v3i85mw275OCK1RbSM+UciYEAdCzJQTJGgZCCIkeAcdd0iRcoSEMt4hR4oFEkIdCCUSox2Umg4EZWoBEPKM0LCsQkEGQi0UQeBqIw4DoVmkGyCId0YrJHyfoJlkvIPpxiDSxS49Bm5ix5uMXCgEv0UCMiUTJY0EpSL3CVIoj6G20DCIXFRi8boqMFNQqi5ylRLYIVAar1BDN/xNPFMJHh8U4Z2mlSkBY7A3kllVQZiZZIZHycOzVDB9gCnMxqM+atmHQkyBPb4AfRLJbP0CPJd78ZngK1jfHCf+vjDPKGaPbxBfote/AL8p5bE6mh9Q/VUKY702vzHAWxVpHo9SMvfdL/jYU+5OvMIMH1EG98o8wQeUwKTqz18BnqlmjxeYj65kmf44312dtviiws4+XoZH3c92d/lbu0Pu6OP8Y3gG60fSWT4qzF/XNRSX9Exhlr8K8zFGf/4A1v9fvAlUxhZTUy8Bty9sEXAEhY6Q2czVGJe4SmX0hM0XKMey9hS/EFJf4rZIqY+Vk74q4A56mbCmjRgcSWczl90hgb5kA05Ur5KAHUx1cZUuUwIEW49nqVDQ7Du7tM2NBQ2aMptMAx40pR/go7Ov+HFiaboWyqOsS/O7+Ia59EIQPxEtvUGkx/WDjxzpYb3iMxbVlcgAK57lShglYpg8hlePFySQ2bI6fEAhK90CVzwaw22GZn+eBbxrgQvnsQbjzwPv23xLW9Cz+ZFoIV6tD1gf88PtVzVqmcvPcPtwfcS/bHe7828A0//7R799df7BQB7/AA==);lineShape=1;fontSize=9;" vertex="1" parent="1">
                    <mxGeometry x="1505.0184665567826" y="350.4837534520665" width="5.224606645219655" height="8.710299887342444" as="geometry"/>
                </mxCell>
                <mxCell id="73" value="" style="shape=stencil(lZbdUttADIWfxrdnpNX+XlN4D2YIjYc0YUKg5e3R1mOIlkSd3vnv88pHR8c7yc3L9v55MwV6OR0PT5vf88NpO8mPKYR5v90c55MeTXI7yc3j4bj5eTy87h+W8+f7/mQ/+nV462/4s3CNUEKnAr0vV2JCan+v3C3Abt6fAxmlGCAJWnWAhsoGyIKaXSCJAUoEeyUltGyAqis4QG2IFmiMFh1AVbIltYLE14FCyFYlJgLRdSITJNolGtiRKRGq7ZzqQE4jooBtI2oFO4BUkAVK84EMsrrmBhIHKGMjUkV1VIphXCGqW5zO6W1pFggITklaQK4G0CKzs0KuaMkCGSE53lARrZlU6OB8dG+TXUFbGfyBoGFG6V8zykPjCLFcB87c/OkNWoPh8hI6MBbQofJa3UdysGtbX3FZJh36YUg1GJySeqzYkr6i53KrBeXbjFYnBjQa6wBofHozmhCHoVZZHTN1QP4HkDima09Dx0whrm7+BBKyE0yc1rQ+i43ofHRBtW4tDHHaEMYwzrym7cXn1ar2AxKvKXLteWuLSODg1ZNsYgRfUc0TWz831xQcR4GYkZweBxmBBHEmRz0x/Bm0AY6garpBofHfpgdfO47HebdbNizn98cdil5adjdy+wE=);lineShape=1;fontSize=9;" vertex="1" parent="1">
                    <mxGeometry x="1510.428057032576" y="346.7598804829039" width="0.7737300739194884" height="0.7761036189554383" as="geometry"/>
                </mxCell>
                <mxCell id="74" value="&lt;font style=&quot;font-size: 9px;&quot;&gt;favorable elements (jo k se kam ho is gucche me) : 1&lt;br&gt;unfavourable(jo k se zyada ho) : 2&lt;/font&gt;" style="text;html=1;align=center;verticalAlign=middle;resizable=0;points=[];autosize=1;strokeColor=none;fillColor=none;" vertex="1" parent="1">
                    <mxGeometry x="1340" y="490" width="230" height="40" as="geometry"/>
                </mxCell>
                <mxCell id="75" value="so unfavourable=swaps required&lt;br&gt;so min of unfavourable is the min no of swaps required&lt;br&gt;mini=min(mini,unfavourable)" style="text;html=1;align=center;verticalAlign=middle;resizable=0;points=[];autosize=1;strokeColor=none;fillColor=none;fontSize=9;" vertex="1" parent="1">
                    <mxGeometry x="40" y="560" width="240" height="50" as="geometry"/>
                </mxCell>
                <mxCell id="77" value="" style="shape=stencil(lVpbchw3DDzN/qL4BMlvx7mHqyxHqiiSS5bzuH0w2XC0BDjNnb+V1K0liDfAS/z04/HL94dLcD/e315/f/jr6ev74yX+cgnh6eXx4e3pXT5d4udL/PTt9e3ht7fXny9frz9//7Iht09/vP65/Ye/rzxHjjdScP9cf9ES5fTfb3694p+fXgY8+xEfqLhjvKfURrz8Bz7GBwojvjZK/hgfKY7nr5VcO8anftodz1TiMZ7NeXL/xil+//YdnyiC83hRQB4JkVoBhEA+akJFGkgUqiYgkT1TMkeCOq7EThMYCL1ZUdOEgAjBqM1TBmYheuYwEEqlkgFBhB6vtYjigB5E00oPXKmhIzUq45E4UK7AtD2FkZAzJUQI3bU6IRUKQOiYtPFFkQF4f5QDjEeSQyLji+Jdo6ZDpoyOJNeqCI4qMI3YdETyhSI4UvLkykiQkAc0nURNo/GJDzLQdBIPVgRPBX1DpsCa8P9FzwlM2RAC+oai9bARkAxiCFETPDC+1KhlQwBHyqJXSwChNXtipThHBRGC9unWb2GOj+RH667QMARfxsiK3S0nSml0aGja4u5+NO0Eg57g6yjvLtAczzpue5gYctHndxhfKUaFj+j8TbuB6zF2npsdBX0eB+yBxeT1eRy4H4nP5jwOnJ+lGAkaDyIRJ51oF/isk9oCz1RP4auOjAt8o3jm/MXp/LTAe2rtDP7k/RdTJCzwmdopfNG5bIGv5+yhSDjzJ/DVUatn8KHnlDvxUadiRwnhk9avhyWXlOpR1Qb9H8zxJuklqiCFSavhx/tnGJ+llUnj/eDqqXldxUrGQwFIeivlwD72lDAnxF5n3NQ2KOVt3Z5KwhlWsS33pL4TGDY4QuCqCRkRWGc9ITAwCyEkc6SCZOBes94SQKJpRdf6a0IyQhdkGoUqnyJUUzIuCVYPkNBmQmNCtnrAhJbOEozQFWT8jaCELr0GOCQ0TYDdtdtj4s6osEqbMRrsfieMRaVjxViUahth1F3wy4tiTcgolhllbwTk1k1n2y09LIQ2t9Twkaq5JaQISxDNoW52QqiwE5wSYIowQovBoqRrr1V8qC2u1XopFtp6KUxCxvhEBgcS9dRLUU6Ze2kAUs+91KGx2ZRRUR6aeenKh8ZwJi6Bpp1TL00L3VkvXajiLCGbSLMgqDy0IphMtyYEG8sQwWTrNSGdO5KpOFYEU9OswqupmjYCMg1Tl60ivqn8NuNDOcXUlqskZKrXLc0hGWx93IjRN4TuwTeRZlHjq9G2FNSwRDFNhN/HSnd2KR6PbWwbtE+i72yzSp8r3dnGcR9cH7aJo6nmPse5sw2VNg7hTZuL8baNXuBNm77AmzHAAm/GDAu8GWMs8GZMssCbMcwCb8Y8GG/HSAu8GVMt8GYMtsCbMdsCb8Z4C/zs/kHQsmPIBd6MOQUPMoEdo6ZeUx6OafX9NxCw7Bg49wh255g5w9S3jbFH/2U8tjdj8gIL4G0MP+prN9jDMb8K0Is5eTTLmQDLOruokJyBtuR2E+ITzHuTXUvuUXtOsNschsPCyb6I4XR9spFi2BpNdl7c951zgt2qMRy3TfZ2DLuKyWaQe7CZE0KfJdy2d0gGu91cPKBoOtqFALcukw1thuO2yLqGig7Oebcts9pjMTS+bY+tImSEg6RtUz7ekngIMo1oYirjUcFWYykC7svte4KCZZi8WGhwpWvfRHxUYnNC0IXRVhqixzv2XYdIBWSYvBypsAmZvE2p3WnnBPv6pUKhJ+9r9n7yoO83L3gqzLdyJUrmBh8scP/rnn4cfuCgtfaxd5jbtn5CJV2SR2ZhzpP6I6/5BennEy3DfsJpM5VmGK15nIl4Du+pjMI+BlBH+KTxaJ7l+pzoBp+Aje5b5Rv84vwKX3vFdIR3+kIrSDozPHqYYfEMJ+D2/BkWnPuW/gaP8oe9/9RrjTv1m+DC6fybyRVePnw80Pz29Px8fd95+3f9oFN+dX0MGj//Cw==);lineShape=1;fontSize=9;" vertex="1" parent="1">
                    <mxGeometry x="341.3361877197585" y="567.8888244639332" width="353.8011781940233" height="8.259267026339876" as="geometry"/>
                </mxCell>
                <mxCell id="78" value="" style="shape=stencil(7VnbThwxDP2afbUc5+Y80/Y/kFjKqhQQ0Nvf1+lqho2zc1Y8VuJtWHLGdx87s4tXL3fXT/ud8Mvr8+O3/a/DzevdLn7aiRwe7vbPh1d72sXPu3h1+/i8//r8+OPh5vj303U/2Z++P/7sb/h9xAXi2kHCf44/MLH8++HL8fj94eHkeKaYh+OBct0+HoQkDecLlbJ93qTnNr4/kgB97H1NR4AS6zYgZuJRI4lUASAlb0JkqgxcFKnxCKikaRtQIqXRaJOJVKpCeZSQmRSopEwljIBMCiRopTzGuTAJALRI7ACRNAJAXfJsBRSqIDVaozjaUJRKg4DkAPYKEAcDlAmAstsAVT2ggTi05lOj8mLVJkA9oKKCY6tfJyKQZCyiekBFkWtL6qwAoYByw9yUPOCCX3PxAJSuPTfG7KuWjzg3QvSAgABK2iYAUsmSs04qoThkkklCQxIClTQBQOCsqEU9QEEcVM64VUE3rpUie8CFThYcIEH+sSahwQMSKLkSlnpZAXmReb59mw0uDoUEuNX6fRo7mblBQVGnuQtYSYHUSMXXQ48MCFyKvgloXqw6z4pm4uglVaogDsaBbSygJrCTSVp4fAUUGIcQqDlAg/VggFLeCXAE0VsbVkkmQAKcZQCeVGIswQXO+khC/d4ATqUKm4ABwgRIINLd6OYBDCJtgOwkFEgoYSpRAxSkkhDHCQDSu4+hxQMalpCyNxqld1gZ7QRQsUpu2LBIR+SlWYLC7t1tGPnhjSY3vZQ9ADWBHoepHhqSYJF268PbvLJZo82LQKNAT9fqARkFIngK6sPBhaKeIlew1XNRB1xBPCVTvmC0eEDAJZemCkKc1ZurekABw/S7AbaGqfOSwA3CKMjZoO3S6udmOGNF1PqS+FFA1312i6j98G25hIh65Y+TYSOD5LNhI8zzD1DJxpngxhmBkS4Tjdo+UEAc+t7mpkSGJWoKOFY0AKLRM2MlUwBG9/EoeQBKjT4a1wmANrmwMNTJ6oe6cR/vp+WyIEA9IwE1gY99d03Xj333P9h3darRsOTjeUChNGcfkjBNTKUuxLrVBdhJiJQBQai1oTEOuUHerdPElBP0UhFqY2okhdO3EYRLjRSg0bYrOqKOkRpoGzH520fBbpXiG5MEuL7KVNPBWPHCsDF6KfDCMRvX2O62MsNbZl5uJlcXwdme/eVphJfe1hL92xPIISZx18twmOSlMazOhzM9+2tZgfe+c6TgBRH7y3ecCFZeozIMM5P9lseQMKf5kZdNd+N48cdRy+Xlzv/kOFp03vcd5uJxe3j75HN7uL8/fjE6/b//RGQ/HT8vxc9/AQ==);lineShape=1;fontSize=9;" vertex="1" parent="1">
                    <mxGeometry x="688.318663649336" y="566.9414649622506" width="24.732271285201932" height="11.839724073558319" as="geometry"/>
                </mxCell>
                <mxCell id="79" value="" style="shape=stencil(rVhbbhsxDDyNfwlJ1PM7be8RIE5jNI2DJH3dvlQNbUzKO+sA/bN3hyuSGj53fPP6cPu83wX3+vZy/Lb/dbh7e9jxp10Ih6eH/cvhTX7t+POOb+6PL/uvL8cfT3en/8+3Hdl/fT/+7F/4fZJzFHIXCu7P6UFtlNq/J19O+MfD0xneUysKXxrFuo6P1F+d4x2lsI5PVLQ+OVFI6/hCSeNTowbwYl3SePk+0N97ytqAJE+Qg5hqVAKxUkInZHJeC2SKGQhUCkYgUinrAnLJsWkBhk4NTE4bHT1VDwQSZX0NUc50QKAO1gwBbuSAAPtBm0UgQ5VYfKK9xAyZypWctkHIkoGXxCdZn9DdALgdE7G2QcIpAaNjI++UgC/EEURPsOEpdPSAS0mcqFWq1ICTslyriR+YLjIPZi63AA3Iy6UuBuDvN2JNbTfC73K6mMIZp6PCNnQcMfBPSTY2Bc8An6mxxQNGlErVGXwA/qnijvIRvNBlwgN7a7JRtoGv4/V1+Cb654/gebjvSnyiav0P8VP9cDBtCT5b/gSQqgVv4tGTQ+VMqp1JKTCzd7zJu6PgXq41brHvPeAjSLv9ANMgkAMB0A3WDqojw6zhizZAbgR/P+ty7B15kCH6DTsrEPAJnI1GBYSY4EM0FldssU/GoxsWe3tjDVzxjI8wBc36BCpYH2Ov32IQ25CPOGSSDfkNxhlGCCFACZgZ57bsNYzGvdMcMQz5diEk4xaBTMxn2HXMOaWODvXKnNVGEbwyJ8qBOGBMzvXL1PKfBKYq0GAXNFeZDfxUxTB+rpIb+KkKb+CnKr+Bn7oIjJ+7lA28dEHR4gEj5i5LLtjhNm5O6g5pJH0iWwFEamlE46QSStO90zUk9bA1kFbatgYMjc7Ojkwez9IyDDTjpTrccFmAR3OylIIwlFwdaDSxJRehm47JulUGQY+HsqJtYDzgy9hnyplMorwxWE7TNFKpj646emTAT2iarvbiYqUC3Nq3JqbkS00DF9cHfK1S8mORsrZCSDpCEyZfX1KYE+Jww+oaRFND6Ij6EGF/M6OotI6gs5P4KlogLxP8yq6oaJv7LgplGZv1JCk0NOyOPmVp7BJcmkRLi4qHy2BjR+pKA/a6QbIlC0skAGI7u//onQDQZ1pDnbUyKwJcpgOgQmaZ2Q0Ase/GbmTB43wn2prGpYxecg1v2gq82ZsaO2lMPIiZGc9w+zHrE0ZYr+FNG+JHb36lP90GgT62fN7Gy4/3Tff94fHxtCg/f2834/LotFXnz38B);lineShape=1;fontSize=9;" vertex="1" parent="1">
                    <mxGeometry x="308.6189295855511" y="576.1715342062471" width="46.689383475439534" height="4.126290562819849" as="geometry"/>
                </mxCell>
                <mxCell id="80" value="" style="shape=stencil(lVnZUhwxDPyafVX5tvVMkv+gCghbIUABuf4+crbsjKWdXnhbZtzY1tnqOcSr1/vr59tDcK9vL0/fbn8db97uD/HTIYTj4/3ty/FNfh3i50O8unt6uf368vTj8eb09/N1X9l/fX/62f/D7xPOk3MdFNyf8SCGfw++nJY/HB83ywPFui4vFMv++kQxLetDpuz318tbtb5SyPvrC7Wyrm/kwfpGIej1Je6vZyptXc/kwXrvKRQNaMBAPhCvDoiOcgWARDmvAE+eAaCQTxqQgI99pcIakB0AMAWzQ0ZR5KjWDwEk7vyHAJFq0YDQACCTbxrgQKRK6GXrOOBpieTKGuDRDjPUtrEEPN0P4DWggliSKzY2AHCkGCk4DUjArDGN1xtAQDtkqqoCNGJg1ljJNQMAKRobpayP5EB4R7FJ1js0cOkkkRM1AJk1hZGQm9Bg4LgUqal8SBTApVPWjhO7NbSDhPcaGnKrggCVeD2S7IlaSeJRtiYAOy5LeK9mzYEqAnhdW3OhgrpPHCeegBks5wGZ3BqtxY0OeR5QdTEuARbjPBNyAqbvz3fEQGWN1pJG4TkPyMRrAskTlNOFR53bAFC0VmPWIqwBOK6anC4zHM+3daf7tABQ5WvRXLqM+D0PEKah7lBh1WisW1YHgCOxdGXWAA9Cg8Ws9g7ASpx1XZLQcMDTzIPczXyIMEUFoPhblh1A9WYT3pJSyHHMmvFJiqKmKABW0RqhH7xzmhOLIxi4um+xeq4GSPo6YL21RHzCdlXcoXnIQwVQVldLxGfsatUVW4IMSwCh6h0aqJUC8F7foSQAaDpHa8OXbrreS+Up6NJt9MDp6TZ6/e4OthrjcFWxlGeK7FpJNbkCCVPPUbVDgiMTs6ZkktQNH6molJttbzdHVVJXyH96PqjC5GG9txknpQ9d+kxSVz9mwd0t1lJWZ6PcvfUKkK7k8A5qzmoyDGKA4veSoxEf6YOArBsvCz1Bpc/0IL4QTKbLCQDFhu2jPGe7d3bqfiRQNiwXYNzlLNtg3OUsnxFAAFayjEkAaAS3nEwAyA+W9TGm65ZXMmZ9lrlygUfq3HitAlwhn+llSFmJMV2PWp3Z1IW9EUKNo4wFo+y0QiaOYHBrGYP0JfyQIvYGLTWOtjqutTfKJVWYImQbMri5dYeKhYcUdULUArucDLwqviXiUcG3I3WdheSdQ7sA0MxhZYHeIJBSYZK6A5DaYqSNDgDhasWT6rFSYeSZ6uCEbAUgAUCzGompA8AOVsQSAFSYjUwmAAeOZIU4KYaIV1qprzBUUK2YKDQRNWorVwqgoB2MINoBoAhYyfUSwIi6neoiUdfIxh2AdjDCdMG6mpW+exdDSrYR1yU0UBs16r2sh0xgJPw235DWoplGTzf4dSMZCzVgoTQCfzOIBhRGOpuFRidwHq8ZqzRID84jqa5E9QY7jzOqvVAGUPCc0eADtKc7I/1eWL/6Sywc4H31xzGGxc78f8kJlJRO+9c7qOI6rZhiGc2Nt9OcsKE53W08JLVOT4WYSc3M2yxHuf6x75IXl8uP/59A744PD6cvqNv3+pOpPDp9bo2f/wI=);lineShape=1;fontSize=9;" vertex="1" parent="1">
                    <mxGeometry x="281.35615296271817" y="577.9256299146793" width="41.34421625274517" height="1.5201060643163147" as="geometry"/>
                </mxCell>
                <mxCell id="81" value="" style="shape=stencil(lZbdUttADIWfxrdnpNX+XlN4D2YIjYc0YUKg5e3R1mOIlkSd3vnv88pHR8c7yc3L9v55MwV6OR0PT5vf88NpO8mPKYR5v90c55MeTXI7yc3j4bj5eTy87h+W8+f7/mQ/+nV462/4s3CNUEKnAr0vV2JCan+v3C3Abt6fAxmlGCAJWnWAhsoGyIKaXSCJAUoEeyUltGyAqis4QG2IFmiMFh1AVbIltYLE14FCyFYlJgLRdSITJNolGtiRKRGq7ZzqQE4jooBtI2oFO4BUkAVK84EMsrrmBhIHKGMjUkV1VIphXCGqW5zO6W1pFggITklaQK4G0CKzs0KuaMkCGSE53lARrZlU6OB8dG+TXUFbGfyBoGFG6V8zykPjCLFcB87c/OkNWoPh8hI6MBbQofJa3UdysGtbX3FZJh36YUg1GJySeqzYkr6i53KrBeXbjFYnBjQa6wBofHozmhCHoVZZHTN1QP4HkDima09Dx0whrm7+BBKyE0yc1rQ+i43ofHRBtW4tDHHaEMYwzrym7cXn1ar2AxKvKXLteWuLSODg1ZNsYgRfUc0TWz831xQcR4GYkZweBxmBBHEmRz0x/Bm0AY6garpBofHfpgdfO47HebdbNizn98cdil5adjdy+wE=);lineShape=1;fontSize=9;" vertex="1" parent="1">
                    <mxGeometry x="140.67874843321192" y="464.5288862365495" width="0.708344433869698" height="0.7105173976350684" as="geometry"/>
                </mxCell>
            </root>
        </mxGraphModel>
    </diagram>
</mxfile>